<?xml version="1.0" encoding="utf-8"?>
<!-- Generator: Adobe Illustrator 25.2.3, SVG Export Plug-In . SVG Version: 6.00 Build 0)  -->
<svg version="1.1" id="Layer_1" xmlns="http://www.w3.org/2000/svg" xmlns:xlink="http://www.w3.org/1999/xlink" x="0px" y="0px"
	 viewBox="0 0 200 100" style="enable-background:new 0 0 200 100;" xml:space="preserve">
<style type="text/css">
	.st0{fill:#FFFFFF;}
</style>
<g>
	<path class="st0" d="M2.86,79.53c0.04-0.02-0.07-0.04,0.21-0.1C3.06,79.42,3.33,79.41,2.86,79.53z M7.64,78.2l0.67-0.24l-0.6,0.19
		L7.64,78.2z M9.58,77.64l-0.33,0.18c0.94-0.25,2.15-0.63,2.83-0.76c-0.45-0.03-1.58,0.42-2.37,0.57L9.58,77.64z M13.95,76.91
		l0.1-0.01c0.09-0.02,0.22-0.05,0.45-0.1C14.34,76.78,14.99,76.63,13.95,76.91z M14.05,76.9C13.59,77.02,14.36,76.88,14.05,76.9
		L14.05,76.9z M16.17,76.36l-0.59,0.2c0.14,0.01,0.68-0.11,0.49-0.04C16.68,76.35,16.54,76.34,16.17,76.36z M16.71,76.1l-0.31,0.1
		C16.47,76.21,16.55,76.19,16.71,76.1z M16.1,76.3c0.04-0.06-0.08,0.02-0.35,0.12l0.65-0.21C16.31,76.2,16.29,76.15,16.1,76.3z
		 M15.17,76.41c-1.15,0.31-0.96,0.37,0.2,0.07C15.02,76.53,14.57,76.62,15.17,76.41z M11.42,77.09c0.19-0.07,0.88-0.19,0.84-0.22
		l-0.46,0.08L11.42,77.09z M19.98,75.55l-0.29-0.1l-0.44,0.15C19.49,75.58,19.93,75.5,19.98,75.55z M19.69,75.46l0.65-0.23
		C19.74,75.36,19.64,75.42,19.69,75.46z M15.71,76.29l1.28-0.45l-0.21,0.05L15.71,76.29z M22.18,75.14l0.64-0.31l-0.28,0.12
		L22.18,75.14z M24.38,74.75c0.46-0.11,0.84-0.26,1.18-0.41c-0.37,0.12-0.78,0.19-1.32,0.23C23.98,74.71,24.67,74.64,24.38,74.75z
		 M21.49,74.97c0.06,0.01,0.17,0.05,0.56-0.01l-0.29-0.05C21.67,74.92,21.58,74.95,21.49,74.97z M21.74,74.9l0.01,0
		c0.29-0.07,0.49-0.11,0.57-0.13C22.25,74.79,22.07,74.83,21.74,74.9z M18.92,75.22c-0.26,0.15,0.2,0.08-0.36,0.32
		C18.93,75.39,19.73,75.12,18.92,75.22z M20.31,75.19l0.74-0.27l-0.72,0.15C20.36,75.09,20.5,75.11,20.31,75.19z M21.32,74.86
		l0.07-0.07l-0.34,0.12L21.32,74.86z M24.88,74.25c0.3-0.12,0.63-0.2,1.01-0.29c-0.42,0.06-0.84,0.14-1.25,0.23
		C24.6,74.24,24.44,74.35,24.88,74.25z M29.66,73.16l-0.07-0.01l-0.01,0.03L29.66,73.16z M24.57,74.18
		c-0.31,0.04-0.49,0.11-0.66,0.19c0.23-0.06,0.47-0.12,0.73-0.18C24.67,74.16,24.67,74.15,24.57,74.18z M27.18,73.83
		c-0.17,0.01-0.36,0.02-0.55,0.04C26.79,73.88,27.13,73.88,27.18,73.83z M23.53,74.53l-0.04,0.02
		C23.59,74.55,23.57,74.54,23.53,74.53z M23.53,74.53c0.15-0.05,0.27-0.11,0.39-0.16c-0.18,0.05-0.36,0.1-0.5,0.15L23.53,74.53z
		 M31.35,71.81l-0.8,0.28c-0.02-0.04,0.26-0.17,0.02-0.15c-0.02,0.15-0.8,0.47-1.53,0.49c-0.66,0.26-0.11,0.59,0.55,0.72
		c0.01-0.06-0.01-0.12,0.68-0.35c-0.27-0.02-1.61,0.17-1.04-0.08c0.92-0.28,0.78-0.13,1.25-0.15
		C30.05,72.47,31.61,72.03,31.35,71.81z M28.24,73.42l-0.29,0.08c0.34-0.05,0.59-0.05,1.05-0.03c0.47-0.17,0.56-0.24,0.58-0.29
		l-1.44,0.29L28.24,73.42z M27.06,73.32c-0.85,0.2-0.57,0.25-1.07,0.42c1.37-0.34-0.38,0.16,0.64,0.02
		c-0.27,0.08-0.51,0.14-0.74,0.2c0.25-0.04,0.5-0.07,0.73-0.09l-0.03,0l-0.01,0l0,0c-0.06,0-0.09-0.01-0.02-0.02l0.03-0.01
		l0.05-0.07c0.41-0.06,0.07,0.02-0.05,0.07l-0.01,0.02l0.01,0l1.36-0.37c-0.3,0.04-0.66,0.13-1.31,0.28
		C26.84,73.59,27.52,73.38,27.06,73.32z M19.59,74.8l0.05,0.01C19.72,74.78,19.75,74.76,19.59,74.8z M20.86,74.81
		c0.02,0.01,0.03,0.01,0.05,0.01C20.93,74.81,20.9,74.81,20.86,74.81z M19.6,74.96l0.09-0.04c0.44-0.08,1-0.12,1.17-0.12
		c-0.17-0.05-0.33-0.09-0.69-0.09c-0.1,0.04-0.17,0.11-0.49,0.18c-0.29,0.04-0.01-0.05-0.04-0.09
		C19.45,74.89,18.98,75.07,19.6,74.96z M23.42,74.14l1.13-0.32l-0.61,0.02l0.05,0.06C23.33,74.03,23.49,74.07,23.42,74.14z
		 M29.69,73.39l0.61-0.36l-0.5,0.17L29.69,73.39z M31.28,73.02l0.37-0.17l-0.35,0.02L31.28,73.02z M115.9,54.91l0.33-0.15
		C116.07,54.81,115.97,54.86,115.9,54.91z M113.4,55.2l-0.04,0.19C113.47,55.28,113.51,55.2,113.4,55.2z M68.17,65.86
		c0.54,0.16,1.16,0.44,1.05,0.16l-0.2-0.26C68.68,65.87,68.41,65.88,68.17,65.86z M93.29,60.03l-0.16-0.08
		c-0.1,0.14-0.2,0.27-0.29,0.38C92.97,60.24,93.13,60.14,93.29,60.03z M94.12,58.66c-0.16-0.05-0.38-0.09-0.69-0.12L94.12,58.66z
		 M129.49,52.77l0.36-0.51C129.22,52.32,129.52,52.53,129.49,52.77z M46.62,69.63c0.44,0,0.79-0.03,1.09-0.07
		C47.17,69.53,46.72,69.43,46.62,69.63z M115.41,59.43c0.2-0.09,0.28-0.19,0.27-0.28C115.47,59.25,115.36,59.34,115.41,59.43z
		 M48.95,69.33c-0.08-0.01-0.16,0-0.24-0.01c-0.3,0.09-0.61,0.18-1,0.24C48.11,69.58,48.56,69.56,48.95,69.33z M179.43,51.64
		c0.01-0.04-0.04-0.04-0.11-0.04L179.43,51.64z M193.78,53.69c-0.14,0.01-0.37,0.02-0.59,0.03
		C193.29,53.72,193.47,53.71,193.78,53.69z M37.33,71.66C37.02,71.74,37.29,71.69,37.33,71.66L37.33,71.66z M51.83,67.34l0.03-0.01
		C51.76,67.31,51.78,67.31,51.83,67.34z M36.84,71.68c0.12,0,0.27-0.02,0.42-0.03C37.19,71.65,37.06,71.65,36.84,71.68z
		 M36.92,71.75c-0.11,0.02-0.2,0.03-0.28,0.04C36.61,71.83,36.65,71.84,36.92,71.75z M37.77,71.55c-0.18,0.04-0.35,0.07-0.52,0.09
		l0.08,0.01C37.43,71.64,37.56,71.6,37.77,71.55z M152.67,52.75l0.07,0.04C153.06,52.58,152.92,52.62,152.67,52.75z M75.97,61.38
		l-0.03,0.02l0.05,0L75.97,61.38z M77.08,60.94c-0.43,0.47-0.71,0.48-1.1,0.47l0.53,0.8L77.08,60.94z M93.41,58.71
		c0.08,0.05,0.1,0.12,0.13,0.19C93.62,58.83,93.61,58.75,93.41,58.71z M129.43,52.86l0.04,0l0.03-0.1L129.43,52.86z M55.91,65.4
		c0.23-0.01,0.36,0.01,0.45,0.04C56.37,65.37,56.26,65.34,55.91,65.4z M34.07,72.44l0.68-0.19c-0.33,0.08-0.46,0.06-0.63,0.07
		C34.14,72.35,34.29,72.39,34.07,72.44z M27.56,72.8l0.05,0.07c0.43-0.1,0.71-0.23,0.26-0.16C27.77,72.74,27.65,72.75,27.56,72.8z
		 M33.29,71.97c-0.09-0.14-0.51,0.01-0.98,0.14l0.09-0.02C32.3,72.33,32.8,72.15,33.29,71.97z M31.76,72.25
		c-0.04,0.1,0.18-0.02,0.44-0.1C32.05,72.18,31.9,72.22,31.76,72.25z M38.35,71.3c-0.24,0.01-0.09,0.25-0.24,0.2
		C37.9,71.77,39.57,70.92,38.35,71.3z M32.79,71.56L33,71.71l0.23-0.21L32.79,71.56z M35.64,71.06c0.47-0.1,1-0.18,0.97-0.24
		l-0.78,0.12C35.85,70.97,35.76,71.01,35.64,71.06z M35.64,71.06c-0.25,0.05-0.48,0.11-0.61,0.18
		C35.16,71.2,35.45,71.13,35.64,71.06z M34.06,71.24l0.54-0.11l-0.78,0.13L34.06,71.24z M45.71,68.79c0.07-0.1-0.17-0.1-0.48-0.01
		c-0.19,0.1-0.5,0.19-0.35,0.24L45.71,68.79z M42.61,69.02l-0.04-0.29l-0.37,0.19C42.44,68.93,42.47,68.97,42.61,69.02z
		 M44.75,68.09c-0.07,0.1-0.9,0.35-0.11,0.25C44.71,68.24,45.81,67.84,44.75,68.09z M57.4,66.07l-0.21,0.05l0.14,0.57L57.4,66.07z
		 M68.34,62.39c-1.03,0.04-0.17,0.45-1.11,0.43c-0.21,0.2,0.77,0.02,0.55,0.2C68.36,62.74,68.7,62.77,68.34,62.39z M67.79,63.01
		c-0.09,0.04-0.19,0.1-0.29,0.16C67.67,63.1,67.74,63.05,67.79,63.01z M196.18,53.7l0.65-0.01l-0.42-0.03L196.18,53.7z
		 M197.44,53.54l0.15,0.07l0.4-0.08C197.84,53.54,197.55,53.55,197.44,53.54z M108.32,55.26l-0.55-0.25l-0.03,0.15
		C107.86,55.3,108.01,55.28,108.32,55.26z M116.85,54.73l-0.19-0.54l-0.15,0.01L116.85,54.73z M124,52.42
		c-0.31,0.01-0.65,0.2-0.96,0.22C123.7,52.44,124.16,53.17,124,52.42z M66.46,32.32c0.25,0.07,0.49-0.01,0.71-0.26
		c0.17-0.22,0.39-0.52,0.64-0.88c0.25-0.36,0.52-0.78,0.82-1.25c0.3-0.5,0.59-1,0.86-1.5c0.27-0.5,0.54-1,0.79-1.5
		c0.52-1,0.82-1.84,0.9-2.54c0.05-0.62-0.25-1.07-0.9-1.35c-0.62-0.32-1.25-0.41-1.87-0.26c-0.67,0.15-1.08,0.55-1.23,1.2
		c0.22,1.27,0.17,2.52-0.15,3.74c-0.2,0.6-0.41,1.19-0.64,1.78c-0.22,0.59-0.47,1.13-0.75,1.63c-0.13,0.22-0.1,0.47,0.07,0.75
		C65.89,32.09,66.14,32.24,66.46,32.32z M33.74,31.78c0.3-0.01,0.61,0.04,0.94,0.15c0.32,0.11,0.65,0.27,0.99,0.49
		c0.34,0.21,0.72,0.44,1.14,0.69c0.6,0.37,0.87,0.85,0.82,1.42c0,0.27-0.11,0.76-0.32,1.46c-0.21,0.7-0.51,1.43-0.9,2.19
		c-0.39,0.76-0.86,1.47-1.42,2.13c-0.56,0.66-1.19,1.1-1.89,1.33c-0.5,0.13-0.93,0.16-1.31,0.11c-0.37-0.05-0.79-0.17-1.23-0.37
		c-0.13,0.25-0.26,0.62-0.41,1.1c-0.15,0.49-0.26,0.98-0.34,1.48c-0.07,0.5-0.1,0.94-0.07,1.33c0.02,0.39,0.17,0.6,0.45,0.65
		c0.4,0.07,0.97-0.14,1.7-0.64c0.73-0.5,1.5-1.15,2.3-1.96c0.8-0.81,1.58-1.73,2.36-2.75c0.77-1.02,1.4-2.02,1.87-2.99
		c0.05-0.05,0.11-0.08,0.17-0.1c0.27-0.51,0.56-1,0.86-1.47c0.59-0.92,1.2-1.73,1.85-2.43c0.65-0.7,1.26-1.21,1.83-1.53
		c0.35-0.17,0.67-0.27,0.97-0.28c0.3-0.01,0.61,0.04,0.94,0.15c0.32,0.11,0.65,0.27,0.99,0.49c0.34,0.21,0.72,0.44,1.14,0.69
		c0.6,0.37,0.87,0.85,0.82,1.42c0,0.27-0.11,0.76-0.32,1.46c-0.21,0.7-0.51,1.43-0.9,2.19c-0.39,0.76-0.86,1.47-1.42,2.13
		c-0.56,0.66-1.19,1.1-1.89,1.33c-0.5,0.13-0.93,0.16-1.31,0.11c-0.37-0.05-0.79-0.17-1.23-0.37c-0.13,0.25-0.26,0.62-0.41,1.1
		c-0.15,0.49-0.26,0.98-0.34,1.48c-0.07,0.5-0.1,0.94-0.07,1.33c0.02,0.39,0.17,0.6,0.45,0.65c0.4,0.07,0.97-0.14,1.7-0.64
		c0.73-0.5,1.5-1.15,2.3-1.96c0.8-0.81,1.58-1.73,2.36-2.75c0.77-1.02,1.4-2.02,1.87-2.99c0.01-0.01,0.03-0.01,0.04-0.03
		c0.3-0.73,0.58-1.43,0.85-2.09c0.5-1.21,0.88-2.14,1.16-2.79c0.1-0.3,0.33-0.45,0.69-0.47c0.36-0.01,0.72,0.05,1.08,0.19
		c0.36,0.14,0.67,0.32,0.92,0.54c0.25,0.22,0.32,0.44,0.22,0.64c-0.12,0.25-0.25,0.52-0.37,0.82c-0.13,0.3-0.29,0.72-0.49,1.27
		c0.25-0.2,0.49-0.38,0.73-0.54c0.24-0.16,0.47-0.29,0.71-0.37c0.24-0.09,0.49-0.14,0.77-0.15c0.27-0.01,0.59,0.04,0.93,0.17
		c0.6,0.2,1.1,0.37,1.5,0.51c0.4,0.14,0.71,0.32,0.93,0.54c0.22,0.22,0.38,0.52,0.47,0.9c0.09,0.37,0.12,0.91,0.09,1.61
		c1.3-0.72,2.37-1.15,3.22-1.29c0.85-0.14,1.67,0.04,2.47,0.54c-0.42,0.13-0.99,0.37-1.7,0.75c-0.71,0.37-1.43,0.8-2.15,1.27
		c-0.72,0.47-1.37,0.93-1.95,1.38c-0.57,0.45-0.92,0.8-1.05,1.05c-0.15,0.3-0.39,0.71-0.73,1.23c-0.34,0.52-0.74,1.07-1.22,1.65
		c-0.47,0.57-0.98,1.15-1.51,1.72c-0.54,0.57-1.08,1.06-1.63,1.46c-0.5,0.35-0.99,0.58-1.46,0.69c-0.47,0.11-0.92,0.02-1.35-0.28
		c-0.47-0.35-0.7-0.75-0.69-1.2c0.01-0.45,0.16-0.92,0.45-1.42c0.29-0.5,0.69-1,1.2-1.5c0.51-0.5,1.02-0.98,1.53-1.46
		c0.51-0.47,1-0.9,1.46-1.29c0.46-0.39,0.79-0.7,0.99-0.95c0.17-0.22,0.34-0.53,0.5-0.92c0.16-0.39,0.29-0.78,0.37-1.18
		c0.09-0.4,0.13-0.77,0.13-1.1c0-0.34-0.07-0.55-0.22-0.65c-0.75,0.17-1.52,0.72-2.32,1.65c-0.8,0.92-1.57,2.04-2.32,3.35
		c-0.75,1.31-1.47,2.73-2.15,4.26c-0.69,1.53-1.3,3-1.85,4.39c-0.55,1.4-1,2.64-1.37,3.74c-0.36,1.1-0.6,1.87-0.73,2.32
		c-0.07,0.27-0.3,0.42-0.67,0.45c-0.37,0.02-0.77-0.04-1.18-0.19c-0.41-0.15-0.76-0.37-1.05-0.65c-0.29-0.29-0.37-0.6-0.24-0.95
		c0.2-0.55,0.52-1.4,0.97-2.56c0.45-1.16,0.96-2.46,1.53-3.91c0.24-0.61,0.49-1.24,0.75-1.88c0.25-0.62,0.51-1.26,0.77-1.91
		c0,0,0,0,0,0c-0.23,0.24-0.46,0.48-0.7,0.7c-0.3,0.29-0.61,0.58-0.92,0.85c-0.82,0.7-1.63,1.27-2.43,1.72
		c-0.37,0.2-0.77,0.27-1.2,0.22c-0.42-0.05-0.85-0.17-1.27-0.36c-0.42-0.19-0.81-0.4-1.16-0.65c-0.35-0.25-0.64-0.49-0.86-0.71
		c-0.47-0.5-0.74-1.16-0.79-2c-0.02-0.3-0.01-0.61,0.01-0.92c0,0,0,0,0,0c-0.1,0.12-0.2,0.26-0.31,0.38
		c-0.75,0.85-1.53,1.62-2.36,2.32c-0.82,0.7-1.63,1.27-2.43,1.72c-0.37,0.2-0.77,0.27-1.2,0.22c-0.42-0.05-0.85-0.17-1.27-0.36
		c-0.42-0.19-0.81-0.4-1.16-0.65c-0.35-0.25-0.64-0.49-0.86-0.71c-0.47-0.5-0.74-1.16-0.79-2c-0.05-0.84,0.04-1.74,0.28-2.71
		c0.24-0.97,0.59-1.98,1.07-3.03c0.47-1.05,1-2.03,1.59-2.95c0.59-0.92,1.2-1.73,1.85-2.43c0.65-0.7,1.26-1.21,1.83-1.53
		C33.12,31.88,33.44,31.79,33.74,31.78z M41.63,39.8c0.45,0.07,0.87-0.06,1.25-0.41c0.39-0.35,0.74-0.79,1.05-1.33
		c0.31-0.54,0.56-1.1,0.75-1.7c0.19-0.6,0.3-1.11,0.36-1.53c-0.25,0.17-0.57,0.51-0.95,0.99c-0.39,0.49-0.76,1-1.12,1.55
		c-0.36,0.55-0.67,1.06-0.94,1.53C41.76,39.38,41.63,39.67,41.63,39.8z M33.72,35.82c-0.39,0.49-0.76,1-1.12,1.55
		c-0.36,0.55-0.67,1.06-0.94,1.53c-0.26,0.47-0.39,0.77-0.39,0.9c0.45,0.07,0.87-0.06,1.25-0.41c0.39-0.35,0.74-0.79,1.05-1.33
		c0.31-0.54,0.56-1.1,0.75-1.7c0.19-0.6,0.3-1.11,0.36-1.53C34.43,35,34.11,35.33,33.72,35.82z M16.95,47.35
		c0.97,0.92,2.05,1.85,3.24,2.79c1.18,0.93,2.41,1.8,3.66,2.6c1.26,0.8,2.45,1.38,3.57,1.76c0.62,0.2,1.21,0.21,1.76,0.04
		c0.55-0.17,1.04-0.44,1.48-0.8c0.44-0.36,0.81-0.78,1.12-1.25c0.31-0.47,0.55-0.92,0.73-1.35c0.17-0.42,0.27-0.79,0.3-1.08
		c0.02-0.3-0.04-0.44-0.19-0.41c-0.07,0.25-0.23,0.46-0.47,0.64c-0.24,0.17-0.5,0.32-0.8,0.43c-0.3,0.11-0.61,0.19-0.93,0.22
		c-0.32,0.04-0.61,0.03-0.86-0.02c-0.52-0.07-1.15-0.29-1.89-0.64c-0.74-0.35-1.52-0.77-2.36-1.27c-0.84-0.5-1.69-1.05-2.56-1.66
		c-0.87-0.61-1.7-1.22-2.47-1.81c-0.77-0.6-1.46-1.16-2.08-1.7c-0.61-0.54-1.08-0.99-1.4-1.37c0.87-0.62,1.88-1.37,3.03-2.24
		c1.15-0.87,2.32-1.81,3.53-2.82c1.21-1.01,2.41-2.06,3.61-3.14c1.2-1.08,2.29-2.16,3.27-3.23c0.98-1.07,1.83-2.11,2.52-3.12
		c0.7-1.01,1.16-1.94,1.38-2.79c0.15-0.6,0.09-1.17-0.17-1.72c-0.26-0.55-0.64-0.99-1.12-1.33c-0.49-0.34-1.02-0.54-1.59-0.6
		c-0.57-0.06-1.08,0.08-1.53,0.43c0.65,0.05,0.99,0.32,1.03,0.8c0.04,0.49-0.14,1.12-0.52,1.89c-0.39,0.77-0.95,1.64-1.68,2.6
		c-0.74,0.96-1.54,1.95-2.41,2.97c-0.87,1.02-1.78,2.03-2.71,3.03c-0.93,1-1.81,1.91-2.62,2.73c-0.81,0.82-1.51,1.51-2.11,2.08
		c-0.6,0.56-1,0.93-1.2,1.1c0.3-0.6,0.68-1.41,1.14-2.45c0.46-1.03,0.9-2.17,1.33-3.4c0.42-1.23,0.79-2.51,1.1-3.81
		c0.31-1.31,0.47-2.54,0.49-3.68c0.01-1.15-0.18-2.16-0.58-3.03c-0.4-0.87-1.08-1.47-2.06-1.79c-1.27-0.45-2.51-0.55-3.72-0.32
		c-1.21,0.24-2.36,0.72-3.46,1.44c-1.1,0.72-2.13,1.62-3.09,2.69c-0.96,1.07-1.84,2.23-2.64,3.46c-0.8,1.23-1.5,2.48-2.09,3.74
		c-0.6,1.26-1.07,2.44-1.42,3.53c-0.47,1.42-0.72,2.58-0.75,3.48c-0.05,0.32-0.05,0.64,0,0.93c0.05,0.3,0.11,0.59,0.19,0.86
		c0.1,0.42,0.24,0.8,0.43,1.12c0.19,0.32,0.4,0.6,0.65,0.82c0.65,0.6,1.43,0.9,2.36,0.92c0.92,0.01,1.82-0.19,2.69-0.62
		c-1.15-0.02-1.95-0.37-2.39-1.05c-0.45-0.67-0.64-1.55-0.56-2.64c0.07-1.08,0.36-2.31,0.84-3.68c0.49-1.37,1.11-2.75,1.87-4.13
		c0.76-1.38,1.61-2.71,2.54-3.98c0.93-1.27,1.87-2.36,2.81-3.27c0.93-0.91,1.83-1.56,2.69-1.96c0.86-0.4,1.6-0.42,2.23-0.07
		c0.35,0.22,0.54,0.67,0.58,1.33c0.04,0.66-0.03,1.46-0.21,2.39c-0.17,0.93-0.42,1.96-0.75,3.07c-0.32,1.11-0.69,2.2-1.08,3.27
		c-0.3,0.8-0.59,1.56-0.88,2.28c-0.29,0.72-0.56,1.38-0.82,1.96c-0.26,0.59-0.49,1.1-0.69,1.53c-0.2,0.44-0.36,0.74-0.49,0.92
		c-0.17-0.17-0.39-0.47-0.64-0.88c-0.25-0.41-0.47-0.86-0.67-1.35c-0.2-0.49-0.36-0.98-0.49-1.48c-0.13-0.5-0.16-0.92-0.11-1.27
		c-0.75,0.82-1.2,1.65-1.35,2.49c-0.15,0.84-0.15,1.64,0,2.41c0.17,0.75,0.44,1.43,0.79,2.04c0.35,0.61,0.66,1.12,0.94,1.51
		c-0.27,0.55-0.61,1.14-1.01,1.78c-0.4,0.64-0.82,1.28-1.27,1.93c-0.55,0.72-1.1,1.38-1.65,1.98c-0.55,0.6-1.06,1.03-1.53,1.31
		c-0.2,0.27-0.14,0.55,0.17,0.82c0.31,0.27,0.71,0.51,1.2,0.69c0.49,0.19,0.98,0.32,1.48,0.39c0.5,0.07,0.85,0.04,1.05-0.11
		c0.3-0.22,0.64-0.6,1.03-1.14c0.39-0.54,0.77-1.12,1.14-1.74c0.37-0.62,0.72-1.24,1.05-1.85c0.32-0.61,0.57-1.09,0.75-1.44
		C15.2,45.66,15.98,46.43,16.95,47.35z M70.5,34.45c-0.6,1.05-1.15,2.18-1.65,3.4c-0.5,1.22-0.95,2.41-1.35,3.57
		c-0.4,1.16-0.75,2.23-1.05,3.22c-0.3,0.99-0.52,1.78-0.67,2.37c-0.07,0.22,0.03,0.45,0.32,0.67c0.29,0.22,0.62,0.4,0.99,0.52
		c0.37,0.13,0.75,0.18,1.12,0.17c0.37-0.01,0.62-0.13,0.75-0.36c0.27-0.57,0.67-1.3,1.18-2.17c0.51-0.87,1.07-1.76,1.68-2.66
		c0.61-0.9,1.23-1.74,1.85-2.54c0.62-0.8,1.18-1.41,1.68-1.83c-0.07,0.17-0.21,0.56-0.39,1.14c-0.19,0.59-0.37,1.24-0.56,1.96
		c-0.19,0.72-0.33,1.45-0.43,2.17c-0.1,0.72-0.1,1.3,0,1.72c0.05,0.25,0.24,0.5,0.56,0.75c0.32,0.25,0.7,0.45,1.12,0.6
		c0.42,0.15,0.86,0.24,1.31,0.28c0.45,0.04,0.85-0.03,1.2-0.21c0.52-0.27,1.09-0.73,1.7-1.38c0.61-0.65,1.21-1.38,1.8-2.19
		c0.59-0.81,1.13-1.65,1.65-2.52c0.51-0.87,0.94-1.67,1.29-2.39c0.02-0.07-0.02-0.18-0.15-0.32c-0.13-0.14-0.28-0.26-0.47-0.36
		c-0.19-0.1-0.37-0.16-0.56-0.19c-0.19-0.02-0.32,0.05-0.39,0.22c-0.4,0.75-0.85,1.5-1.35,2.24c-0.5,0.75-1.02,1.45-1.55,2.09
		c-0.54,0.65-1.08,1.22-1.63,1.72c-0.55,0.5-1.06,0.89-1.53,1.16c0-0.52,0.11-1.16,0.34-1.91c0.22-0.75,0.49-1.53,0.79-2.34
		c0.3-0.81,0.61-1.58,0.93-2.32c0.32-0.74,0.59-1.35,0.79-1.85c0.12-0.3,0.08-0.6-0.13-0.92c-0.21-0.31-0.5-0.58-0.88-0.8
		c-0.37-0.22-0.78-0.37-1.22-0.45c-0.44-0.07-0.8-0.02-1.1,0.15c-0.45,0.27-0.91,0.61-1.38,1.01c-0.47,0.4-0.94,0.85-1.4,1.35
		c-0.46,0.5-0.92,1.03-1.38,1.61c-0.46,0.57-0.89,1.15-1.29,1.72c0.02-0.12,0.13-0.36,0.32-0.71c0.19-0.35,0.41-0.75,0.67-1.22
		c0.26-0.46,0.54-0.96,0.82-1.5c0.29-0.54,0.55-1.07,0.8-1.59c0.07-0.2-0.01-0.44-0.24-0.71c-0.24-0.27-0.54-0.5-0.92-0.67
		c-0.37-0.17-0.75-0.26-1.14-0.26C70.96,33.93,70.68,34.1,70.5,34.45z M198.27,38.81c-0.01,0.26-0.09,0.56-0.24,0.88
		c-0.15,0.32-0.39,0.6-0.71,0.82c-0.97,0.6-1.88,1.19-2.71,1.78c-0.84,0.59-1.64,1.2-2.41,1.85c-0.35,0.27-0.61,0.59-0.79,0.93
		c-0.5,1.02-1.08,2.16-1.76,3.4c-0.67,1.25-1.41,2.44-2.21,3.57c-0.8,1.13-1.63,2.15-2.51,3.05c-0.87,0.9-1.73,1.51-2.58,1.83
		c-0.32,0.12-0.77,0.12-1.35-0.02c-0.57-0.14-1.09-0.39-1.55-0.75c-0.46-0.36-0.79-0.82-0.97-1.38c-0.19-0.56-0.06-1.2,0.39-1.93
		c0.02-0.03,0.04-0.06,0.06-0.08c-0.08,0.05-0.18,0.09-0.29,0.13c0,0-0.01,0-0.01,0c-0.12,0.04-0.24,0.07-0.39,0.1
		c-0.57,0.15-1.17,0.15-1.8,0c-0.7-0.13-1.3-0.45-1.8-0.97c-0.52-0.52-0.82-1.35-0.9-2.47c-0.1-1.15,0.19-2.67,0.86-4.56
		c-0.13,0.22-0.26,0.46-0.39,0.69c-0.14,0.24-0.28,0.48-0.43,0.73c-0.25,0.47-0.5,0.94-0.75,1.38c-0.25,0.45-0.5,0.89-0.75,1.31
		c-0.47,0.8-0.91,1.33-1.31,1.61c-0.85,0.35-1.7,0.39-2.54,0.11c-1.25-0.52-1.71-2.01-1.38-4.45c0.08-0.6,0.19-1.23,0.32-1.87
		c-0.32,0.35-0.65,0.7-0.99,1.02c-0.34,0.34-0.7,0.66-1.06,0.96c-0.82,0.7-1.63,1.27-2.43,1.72c-0.37,0.2-0.77,0.27-1.2,0.22
		c-0.42-0.05-0.85-0.17-1.27-0.36c-0.42-0.19-0.81-0.4-1.16-0.65c-0.35-0.25-0.64-0.49-0.86-0.71c-0.47-0.5-0.74-1.16-0.79-2
		c-0.05-0.84,0.04-1.74,0.28-2.71c0.24-0.97,0.59-1.98,1.07-3.03c0.47-1.05,1-2.03,1.59-2.95c0.59-0.92,1.2-1.73,1.85-2.43
		c0.65-0.7,1.26-1.21,1.83-1.53c0.35-0.17,0.67-0.27,0.97-0.28c0.3-0.01,0.61,0.04,0.94,0.15c0.32,0.11,0.65,0.27,0.99,0.49
		c0.34,0.21,0.72,0.44,1.14,0.69c0.6,0.37,0.87,0.85,0.82,1.42c0,0.27-0.11,0.76-0.32,1.46c-0.21,0.7-0.51,1.43-0.9,2.19
		c-0.39,0.76-0.86,1.47-1.42,2.13c-0.56,0.66-1.19,1.1-1.89,1.33c-0.5,0.13-0.93,0.16-1.31,0.11c-0.37-0.05-0.79-0.17-1.23-0.37
		c-0.13,0.25-0.26,0.62-0.41,1.1c-0.15,0.49-0.26,0.98-0.34,1.48c-0.07,0.5-0.1,0.94-0.07,1.33c0.02,0.39,0.17,0.6,0.45,0.65
		c0.4,0.07,0.97-0.14,1.7-0.64c0.73-0.5,1.5-1.15,2.3-1.96c0.8-0.81,1.58-1.73,2.36-2.75c0.27-0.36,0.51-0.71,0.75-1.06c0,0,0,0,0,0
		c0.19-0.55,0.38-1.1,0.6-1.67c0.6-1.62,1.21-3.16,1.83-4.62c0.62-1.46,1.27-2.86,1.94-4.21c1.25-2.64,2.24-4.44,2.99-5.39
		c0.4-0.45,0.95-0.6,1.65-0.45c0.32,0.05,0.62,0.14,0.9,0.26c0.27,0.13,0.52,0.3,0.75,0.52c0.42,0.42,0.47,0.9,0.15,1.42
		c-1.32,1.75-2.58,3.79-3.78,6.13c-0.6,1.2-1.15,2.35-1.65,3.46c-0.5,1.11-0.95,2.2-1.35,3.27c-0.65,1.82-1.16,3.38-1.53,4.67
		c-0.37,1.3-0.6,2.38-0.67,3.25c-0.2,1.7,0.06,2.13,0.79,1.31c0.37-0.5,0.75-1.07,1.12-1.7c0.37-0.64,0.74-1.33,1.08-2.08
		c0.37-0.8,0.74-1.58,1.08-2.36c0.35-0.77,0.69-1.55,1.01-2.32l0.07-0.15l0.07-0.15c1-2.59,2.12-5.09,3.37-7.5
		c1.25-2.41,2.66-4.74,4.23-7.01c0.32-0.45,0.79-0.56,1.38-0.34c0.62,0.2,1.12,0.52,1.5,0.97c0.42,0.42,0.51,0.82,0.26,1.2
		c-1.2,1.5-2.3,3.1-3.31,4.82c-1.01,1.72-1.95,3.58-2.82,5.57c-1.7,3.99-2.73,7.55-3.1,10.7c-0.05,0.39-0.08,0.76-0.09,1.11
		c-0.01,0.21,0,0.39,0,0.58c0,0.13-0.01,0.27,0,0.39c0.01,0.25,0.04,0.47,0.07,0.69c0.01,0.05,0.01,0.11,0.02,0.16
		c0.04,0.25,0.1,0.47,0.17,0.68c0,0.01,0.01,0.03,0.01,0.04c0.3,0.88,0.83,1.44,1.61,1.66c0,0,0,0,0,0c0.13-0.2,0.27-0.39,0.43-0.59
		c0.01-0.02,0.03-0.04,0.04-0.05c0.14-0.18,0.28-0.36,0.44-0.55c0.06-0.07,0.12-0.14,0.18-0.2c0.12-0.14,0.25-0.28,0.38-0.43
		c0.2-0.22,0.42-0.44,0.65-0.67c1-0.98,2-1.9,3.01-2.75c1.01-0.85,1.91-1.6,2.69-2.24c0.79-0.65,1.24-1.1,1.37-1.35
		c0.12-0.25,0.27-0.57,0.43-0.95c0.16-0.39,0.32-0.79,0.47-1.2c0.15-0.41,0.3-0.81,0.45-1.2c0.15-0.39,0.26-0.72,0.34-0.99
		c-0.37,0.62-0.8,1.25-1.29,1.89c-0.49,0.64-0.98,1.24-1.48,1.81c-0.5,0.57-1,1.1-1.51,1.57c-0.51,0.47-0.99,0.86-1.44,1.16
		c-0.27,0.17-0.64,0.22-1.08,0.15c-0.45-0.07-0.88-0.22-1.29-0.45c-0.41-0.22-0.75-0.51-1.03-0.84c-0.27-0.34-0.37-0.68-0.3-1.03
		c0.13-0.62,0.32-1.34,0.58-2.15c0.26-0.81,0.57-1.63,0.92-2.47c0.35-0.84,0.75-1.64,1.2-2.41c0.45-0.77,0.92-1.46,1.42-2.06
		c0.17-0.2,0.45-0.27,0.84-0.22c0.39,0.05,0.76,0.17,1.12,0.36c0.36,0.19,0.64,0.42,0.84,0.69c0.2,0.27,0.19,0.54-0.04,0.79
		c-0.3,0.35-0.67,0.9-1.1,1.65c-0.44,0.75-0.83,1.5-1.18,2.24c-0.35,0.75-0.6,1.4-0.77,1.94c-0.16,0.55-0.13,0.8,0.09,0.75
		c0.22-0.05,0.55-0.31,0.97-0.79c0.42-0.47,0.9-1.06,1.42-1.76c0.52-0.7,1.07-1.46,1.65-2.3c0.57-0.84,1.11-1.64,1.61-2.41
		c0.5-0.77,0.94-1.46,1.33-2.08c0.39-0.61,0.65-1.05,0.8-1.33c0.15-0.22,0.4-0.33,0.75-0.32c0.35,0.01,0.71,0.1,1.08,0.26
		c0.37,0.16,0.69,0.37,0.95,0.62c0.26,0.25,0.37,0.49,0.32,0.71c-0.07,0.52-0.21,1.13-0.39,1.83c-0.19,0.7-0.39,1.42-0.62,2.15
		c-0.22,0.74-0.44,1.43-0.64,2.09c-0.2,0.66-0.36,1.22-0.49,1.66c0.92-0.67,1.7-1.22,2.32-1.63c0.62-0.41,1.28-0.82,1.98-1.22
		c0.25-0.12,0.44-0.12,0.56,0.02C198.23,38.35,198.28,38.55,198.27,38.81z M162.76,39.8c0.45,0.07,0.87-0.06,1.25-0.41
		c0.39-0.35,0.74-0.79,1.05-1.33c0.31-0.54,0.56-1.1,0.75-1.7c0.19-0.6,0.3-1.11,0.36-1.53c-0.25,0.17-0.57,0.51-0.95,0.99
		c-0.39,0.49-0.76,1-1.12,1.55c-0.36,0.55-0.67,1.06-0.94,1.53C162.89,39.38,162.76,39.67,162.76,39.8z M185.58,48.89
		c-0.45,0.42-0.95,0.92-1.51,1.48c-0.56,0.56-1.08,1.12-1.57,1.66c-0.49,0.55-0.9,1.06-1.25,1.53c-0.35,0.47-0.54,0.84-0.56,1.08
		c0.4-0.3,0.82-0.67,1.27-1.1c0.45-0.44,0.89-0.92,1.33-1.44c0.44-0.52,0.85-1.06,1.25-1.61C184.93,49.95,185.28,49.41,185.58,48.89
		z M123.7,41.93c0.41,0.45,0.92,0.75,1.51,0.92c0.6,0.16,1.19,0.22,1.78,0.17c0.59-0.05,1.12-0.2,1.59-0.45
		c0.47-0.25,0.79-0.56,0.93-0.93c-0.37,0.2-0.73,0.32-1.07,0.36c-0.34,0.04-0.64,0.01-0.92-0.09c-0.27-0.1-0.51-0.27-0.69-0.5
		c-0.19-0.24-0.29-0.52-0.32-0.84c-0.1-0.85,0-1.83,0.3-2.95c0.3-1.12,0.73-2.28,1.31-3.48c0.57-1.2,1.25-2.37,2.02-3.53
		c0.77-1.16,1.56-2.19,2.38-3.1c0.81-0.91,1.61-1.64,2.41-2.19c0.8-0.55,1.51-0.82,2.13-0.82c0.55,0,0.85,0.36,0.9,1.08
		c0.05,0.72-0.06,1.62-0.32,2.69c-0.26,1.07-0.63,2.25-1.1,3.53c-0.47,1.28-0.93,2.49-1.38,3.61c-0.22,0.52-0.5,1.18-0.82,1.96
		c-0.32,0.79-0.67,1.64-1.03,2.56c-0.36,0.92-0.72,1.87-1.08,2.84c-0.36,0.97-0.68,1.9-0.95,2.79c-0.27,0.89-0.49,1.68-0.65,2.37
		c-0.16,0.7-0.22,1.25-0.17,1.65c0.07,0.57,0.25,1.12,0.52,1.65c0.27,0.52,0.61,0.98,1.01,1.38c0.4,0.4,0.85,0.72,1.37,0.95
		c0.51,0.24,1.05,0.34,1.63,0.32c0.4-0.02,0.83-0.27,1.29-0.75c0.46-0.47,0.92-1.1,1.38-1.87c0.46-0.77,0.93-1.64,1.4-2.6
		c0.47-0.96,0.93-1.93,1.37-2.9c0.44-0.97,0.85-1.91,1.25-2.81c0.4-0.9,0.75-1.66,1.05-2.28c-0.13,0.55-0.27,1.23-0.45,2.04
		c-0.17,0.81-0.32,1.63-0.45,2.45c-0.13,0.82-0.22,1.6-0.28,2.34c-0.06,0.74-0.06,1.29,0.02,1.66c0.1,0.55,0.31,1.05,0.62,1.5
		c0.31,0.45,0.69,0.84,1.12,1.18c0.44,0.34,0.92,0.6,1.44,0.79c0.52,0.19,1.06,0.29,1.61,0.32c0.42,0.02,1.03-0.41,1.83-1.31
		c0.8-0.9,1.68-2.08,2.66-3.55c0.97-1.47,1.99-3.14,3.05-4.99c1.06-1.86,2.06-3.74,3.01-5.65s1.79-3.75,2.52-5.52
		c0.74-1.77,1.28-3.29,1.63-4.56c0.35-1.27,0.34-2.39-0.02-3.35c-0.36-0.96-0.86-1.73-1.5-2.32c-0.64-0.59-1.31-0.96-2.02-1.12
		c-0.71-0.16-1.24-0.08-1.59,0.24c0.75,0.1,1.24,0.54,1.48,1.31c0.24,0.77,0.27,1.76,0.11,2.97c-0.16,1.21-0.48,2.58-0.95,4.11
		c-0.47,1.53-1.05,3.12-1.72,4.75c-0.67,1.63-1.42,3.25-2.23,4.86c-0.81,1.61-1.62,3.09-2.43,4.45c-0.81,1.36-1.6,2.54-2.36,3.53
		c-0.76,1-1.43,1.7-2,2.09c-0.22,0.15-0.36-0.04-0.41-0.56c-0.05-0.52-0.02-1.28,0.09-2.26c0.11-0.98,0.29-2.16,0.54-3.53
		c0.25-1.37,0.57-2.84,0.95-4.41c0.39-1.57,0.85-3.2,1.38-4.88c0.54-1.68,1.14-3.32,1.81-4.92c0.15-0.25,0.16-0.5,0.04-0.77
		c-0.12-0.26-0.32-0.51-0.6-0.73c-0.27-0.22-0.6-0.42-0.99-0.6c-0.39-0.17-0.75-0.29-1.1-0.34c-0.35-0.05-0.67-0.04-0.95,0.04
		c-0.29,0.07-0.48,0.25-0.58,0.52c-0.17,0.55-0.47,1.35-0.88,2.39c-0.41,1.05-0.89,2.23-1.42,3.55c-0.54,1.32-1.12,2.73-1.74,4.23
		c-0.62,1.5-1.26,2.95-1.91,4.38c-0.65,1.42-1.28,2.76-1.91,4.02c-0.62,1.26-1.19,2.31-1.7,3.16c-0.51,0.85-0.94,1.44-1.29,1.78
		c-0.35,0.34-0.59,0.29-0.71-0.13c-0.1-0.27-0.1-0.71,0-1.31c0.1-0.6,0.26-1.28,0.49-2.06c0.22-0.77,0.49-1.61,0.79-2.51
		c0.3-0.9,0.6-1.78,0.92-2.66c0.31-0.87,0.62-1.7,0.92-2.47c0.3-0.77,0.56-1.43,0.79-1.98c0.35-0.9,0.72-1.87,1.1-2.92
		c0.39-1.05,0.72-2.09,0.99-3.14c0.27-1.05,0.47-2.06,0.58-3.05c0.11-0.98,0.08-1.86-0.09-2.62c-0.17-0.76-0.51-1.38-1.01-1.85
		c-0.5-0.47-1.23-0.74-2.21-0.79c-1-0.02-1.99,0.16-2.99,0.56c-1,0.4-1.98,0.97-2.94,1.7c-0.96,0.74-1.88,1.59-2.75,2.56
		c-0.87,0.97-1.68,2.01-2.41,3.12c-0.74,1.11-1.39,2.26-1.96,3.44c-0.57,1.18-1.03,2.32-1.38,3.42c-0.37,1.12-0.5,2.06-0.37,2.82
		C123.02,40.88,123.29,41.48,123.7,41.93z M97.09,47.32c0.72-0.15,1.48-0.61,2.28-1.38c0.85-0.8,1.58-1.68,2.21-2.66
		c-0.22,0.95-0.38,1.8-0.47,2.56c-0.09,0.76-0.11,1.43-0.06,2c0.22,2.09,1.02,3.45,2.39,4.08c1.3,0.6,2.42,0.42,3.37-0.52
		c-1.7,0-2.54-1.18-2.54-3.55c0-1.2,0.16-2.51,0.47-3.93c0.31-1.42,0.77-2.97,1.37-4.64c1.17-3.27,2.71-6.36,4.6-9.27
		c1.05,0.05,1.99,0.16,2.82,0.32c0.84,0.16,1.58,0.38,2.23,0.65c1.3,0.55,1.86,1.26,1.68,2.13c0.42-0.2,0.67-0.65,0.75-1.35
		c0.1-0.67-0.02-1.37-0.37-2.09c-0.35-0.67-0.96-1.2-1.83-1.57c-0.47-0.12-0.99-0.24-1.55-0.36c-0.56-0.11-1.18-0.19-1.85-0.24
		c0.15-0.15,0.29-0.3,0.43-0.45c0.14-0.15,0.27-0.3,0.39-0.45c0.42-0.5,0.44-1.02,0.04-1.57c-0.35-0.57-0.85-1.01-1.5-1.31
		c-0.62-0.3-1.11-0.27-1.46,0.07c-0.85,0.97-1.7,2.18-2.54,3.63c-1.57,0.1-3.05,0.23-4.45,0.39c-1.4,0.16-2.73,0.38-4,0.65
		c-0.35,0.12-0.52,0.42-0.52,0.9c0.02,0.22,0.06,0.46,0.11,0.71c0.05,0.25,0.14,0.51,0.26,0.79c0.12,0.25,0.26,0.48,0.39,0.69
		c0.14,0.21,0.3,0.41,0.5,0.58c0.3,0.32,0.61,0.45,0.93,0.37c0.8-0.52,1.62-0.96,2.47-1.31c0.85-0.35,1.74-0.61,2.69-0.79
		c-0.27,0.52-0.53,1.05-0.77,1.59c-0.24,0.54-0.48,1.09-0.73,1.66c-0.13,0.25-0.29,0.59-0.51,1.03c-0.21,0.44-0.46,0.97-0.73,1.59
		c-0.27,0.62-0.58,1.25-0.92,1.87c-0.34,0.62-0.68,1.26-1.03,1.91c-0.35,0.65-0.7,1.23-1.05,1.74c-0.35,0.51-0.67,0.95-0.97,1.33
		c-0.62,0.75-1.12,0.89-1.5,0.41c-0.55-0.77,0.55-3.65,3.29-8.64c0.2-0.35,0.07-0.7-0.37-1.05c-0.2-0.15-0.42-0.29-0.65-0.41
		c-0.24-0.12-0.49-0.21-0.77-0.26c-0.52-0.15-0.92-0.09-1.2,0.19c-0.87,1.37-1.81,3.23-2.8,5.57c-0.95,2.37-1.5,4.11-1.65,5.24
		c-0.02,0.77,0.3,1.52,0.97,2.24C95.66,47.07,96.37,47.37,97.09,47.32z M195.58,53.02c-0.43,0.05-1-0.04-1.63-0.16
		c-0.63-0.1-1.34-0.23-2.05-0.09c-0.31-0.08,0.27-0.08,0.1-0.16c-0.36,0.1-0.79,0.11-1.59,0l0.09-0.03
		c-0.31-0.01-0.6-0.03-0.87-0.05c-0.16,0.24-0.31,0.49-0.48,0.72c-0.12,0.17-0.25,0.34-0.37,0.5c0.29-0.01,0.57-0.02,0.86-0.02
		c1.1,0.01,2.19,0.04,3.28,0.1c-0.59-0.07-0.19-0.1,0.26-0.12c-0.29-0.01,0.01-0.12-0.05-0.18l1.82,0.11
		c0.34-0.14,1.96-0.07,2.15-0.17l-0.58,0.02C197.3,53.41,195.46,53.23,195.58,53.02z M173.17,53.51c0.43,0.45,0.96,0.82,1.53,1.09
		c-1.23-0.05-2.39-0.1-3.43,0.2c-0.57-0.21,0.12-0.56-0.63-0.61c1.03,0.66-2.15,0.46-1.49,0.94c-0.74-0.74-2.67-0.01-2.39-1.16
		c-0.89-0.03-0.72,0.52-0.46,0.61c-1.03,0.01-1.87,0.03-2.69,0.47c-0.58-0.25-4.69,0.64-5.66-0.27c0.66,0.59-0.03,0.33-0.62,0.64
		l0.57,0.52l-1.36,0.04c-0.27,0.07-0.35,0.05-0.35,0c-0.23-0.01,0.04-0.33-0.55-0.44c-0.93,0.02-0.95,0.34-1.44,0.67l0.15,0.08
		l-0.62,0.1c-0.46,0.01,1.6-0.68,0.08-0.88c-0.01,0.15-0.85,1-1.28,0.61c0.77-0.03,0.65-0.43,0.36-0.58l-1.08,0.04l0.4,0.72
		c-3.08,0.22-6.32-0.07-9.61,0.21c-0.01-0.7-2.33,0.13-2.11-0.91l0.13,0.09c0.8-0.17-0.3-0.79-0.95-0.62
		c0.71,0.27-1.15,1.13,0.53,1.14l-1.25,0.6c-0.56,2.03-3.46,0.13-5.36,0.92c0.13-0.09,0.16-0.19,0.17-0.26
		c-1.68,0.77-3.95-0.22-4.33,0.13l-0.2-0.52c-1.41,0.94-1.58,0.99-3.39,0.84c0.02-0.09,0.21-0.26-0.09-0.34
		c-0.39,0.43-0.78,0.85-2,0.85l0.03-0.17l-1.89,0.26c-0.15-1.54-3.16,1.22-3.9-0.37c-0.32,0.47-1.7,0.74-2.29,0.99
		c-0.01-0.06-0.06-0.12-0.17-0.18c-0.64,0.85-2.13-0.06-2.93,0.11c-0.51,0.23-0.25,0.45,0.01,0.67c-1.11-0.5-2.79,0.97-3.2,0.75
		c-0.77,0.02-0.35-0.5-0.59-0.78c-1.12,0.26,0.34,1.22-1.24,0.84c0.17-0.08,0.49-0.16,0.35-0.23c-0.59-0.06-1.82-1.48-2.36-1.09
		l0.41,0.19c-1.01,0.46-2.64-0.77-2.7,0.14l0.15,0.4c-1.89-0.32-0.75,0.25-2.66,0.01l0.01-0.07c-0.8,0.18-1.3-0.27-1.61,0.42
		l0.29,0.05c-0.99,0.17-1.09,0.13-2.11,0.23c-0.11,0.07-0.59,0.23-0.75,0.11c0.02,0.51-2.32,0.56-2.78,0.6
		c0.79-0.19,0.38-0.36,0.12-0.53c-0.41,0.49-0.73,0.58-1.43,0.37c0,0.65-0.04,1.34-1.32,1.55c0.19-0.12,0.49-0.22,0.35-0.33
		c-0.15-0.11-0.43,0.07-0.52,0.13c-0.15-0.11,0.25-0.27,0.08-0.46c-0.79,0.72-1.5,0.25-2.74,0.64c0.37-0.24,0.01-0.31-0.17-0.5
		c0.01,0.7-1.82-0.35-1.21,0.47c-2.56-0.17-6.3,0.85-7.36,0.44c-0.3-0.2-0.93,0.28-1.36,0.37l0.01-0.29
		c-1.12,0.71-0.91,0.35-2.24,1.09c0.53-0.42,0.26-0.54-0.37-0.69l-0.88,0.73l-0.26-0.39c-0.37,0.23-0.83,0.24-1.28,0.25
		c0.21-0.04,0.09-0.06,0.06-0.13c-0.11,0.61-1.86,0.83-2.09,1.14c-0.53-0.47-1.14,0.33-1.55-0.13c-0.13,0.1-0.3,0.19-0.49,0.28
		c0.25,0.2,0.38,0.45-0.04,0.4l-0.09,0.02l-0.23-0.28c-0.39,0.14-0.79,0.24-1.06,0.29c0.13,0.01,0.28,0.04,0.44,0.09
		c-0.18-0.02-0.35-0.05-0.51-0.07l-0.14,0.02l0.08-0.03c-0.26-0.03-0.52-0.03-0.85,0.13c-1.48-0.22-3,1.12-4.65,0.76
		c0.24,0.02,0.58,0,0.64-0.12c-1.29,0.22-2.64,0.06-3.41,0.44l0.11,0.25c-0.92,0.29-1.63,0.51-2.4,0.63l0.01,0.29
		c-1.12,0.1-3.41,0.96-4.2,0.53c-0.23,0.26-1.54,0.22-2.15,0.41l-0.2-0.17c-0.83,0.09-1.32,0.25-1.8,0.4
		c-1.74-0.09-3.2,0.59-4.66,0.83l-0.02-0.05l-1.45,0.4c0.35-0.23-0.27,0.16-0.72,0.21c-0.45,0.18-1.21,0.3-1.79,0.31l-0.94,0.19
		c1.01-0.33-0.13-0.22-0.23-0.4l-0.56,0.28c-0.26-0.04,0.35-0.23-0.1-0.17c-0.38,0.19-1.56,0.44-1.88,0.71
		c0.07,0.03,0.22,0.04,0.41,0.04h0.02l0.04,0l-0.05,0l-0.15,0.11c-0.75,0.12-0.46,0.13-0.42,0.21c-0.91-0.1-1.34,0.19-2.05,0.01
		c0.96,0.16-1.93,0.42-1.31,0.63c-0.69-0.13-0.43,0.08-0.89-0.06c0.9-0.12,1.72-0.55,2.41-0.83l-0.74-0.01
		c0.38-0.41,1.59-0.24,1.98-0.44c-0.26,0.14-0.91,0.21-0.95,0.14l0.24,0.2c1.02-0.13,1.77-0.49,2.45-0.78
		c-0.69,0.07,0.77-0.34,0.25-0.4l-0.52,0.15c-0.26-0.03,0.23-0.23,0.51-0.37c1.71-0.2,4.71-1.12,5.37-0.99
		c-0.36,0-0.97,0.19-1.25,0.34c0.27-0.03,0.54-0.04,0.81-0.06c-0.64,0.13-1.19,0.02-2.1,0.33c0.2,0.13-0.43,0.52,0.33,0.59
		c1.85-0.13,1.38-0.77,3.56-1.14c0.19-0.1-0.39,0.38,0.75,0.06c1.42-0.47,2.39-1.11,2.3-1.53c-0.59,0.25-1.76,0.74-2.01,0.49
		c0.59-0.25,1.62-0.54,1.64-0.75c0.71,0.21-1.13,0.35-0.24,0.46c0.43-0.1,0.59-0.25,0.77-0.35c-0.26,0.2,0.44,0.16,0.58,0.21
		c1.39-0.29,2.22-0.3,3.72-0.57c0.09,0.04,0.28,0.12,0.25,0.22c0.71-0.25,1.63-1.03,1.31-1.21c0.85-0.2,0.93-0.03,1.64-0.29
		c-1.23-0.1,0.24,0.01,0.29-0.39c0.73-0.21,0.3,0.12,0.65,0.14c0.12-0.07,0.39-0.26,0.39-0.36c0.51,0.19-0.74,0.94-0.13,1.16
		c0.41,0.13,2.09,0.2,2.21,0.21c0.29-0.4-0.08-1.74-0.69-2.06c0.01-0.24,0.75,0.08,1.08,0.04c1.02,0.17,1.38-0.62,2.2-0.62
		l-0.56,0.33c0.15,0.07,1.29-0.28,1.44-0.45c0.05,0.13-0.47,0.8-0.08,0.89c1.43-0.18,2.64-1.19,2.47-1.59l-2.09,0.84
		c-0.14-0.32,1.48-0.64,1.31-1.03l2.02-0.27c-0.25,0.06-1,0.31-0.67,0.44c0.86-0.19,0.46-0.03,1.06,0.03
		c-0.9,0.64-2.5,2.09-3.05,2.71l0.99-0.4l0.3,0.16c1.3-0.49,2.26-2.09,2.55-2.52c0.79-0.06,0.66,0.76,0.5,0.94
		c1.53-0.23,1.31-1.36,2.86-1.54l-0.61-0.06c0.35-0.14,1.69-0.24,1.53-0.36c0.34,0.15,0.71,0.6,0.39,0.8l1.23-1.01
		c-0.19,0.12,0.06,0.74-0.01,0.87c0.55-0.07,0.8-0.92,0.44-0.96c1.15,0.27,0.84,0.06,1.8,0.46c0.31-0.1-0.15-0.7-0.39-0.72
		c0.68-0.31,1.11-0.31,1.46-0.3c-1.13,0.51-0.07,1.55-0.21,2.1l2.2-2.46c-0.07,0.14-0.16,0.82-0.13,0.9
		c0.11-0.66,3.01-1.21,4.45-1.36l-0.21,0.04c-0.25,0.26,1,0.24,1.47-0.06c-0.06,0.14-0.19,0.12-0.4,0.16
		c1.03,0.33,1.09-1.16,2.14-0.76c-0.89,0.08-1.02,0.37-0.94,0.61c0.68-0.35,2.39-0.36,1.93-1.07c0.49,0.08,0.89-0.08,0.91,0.31
		l1.7-0.75c-0.12,0.1-0.2,0.35,0.33,0.32c-1.01,0.06-1.86,0.93-2.46,0.51c0.05,0.48,0.46,0.67,0.04,1.14
		c1.88-0.52,2.81-1.5,3.94-2.26l1.74,0.08l0.04-0.24l0.38,0.52c0.19-0.16,0.31-0.3,0.36-0.25c0.05,0.04,0,0.13-0.07,0.23
		c0.17-0.06,0.33-0.13,0.4-0.21c0.11,0.29-0.14,0.68-0.41,1.04c-0.17-0.08-0.34-0.17-0.51-0.24c-0.29,0.34-0.49,0.66,0,0.78
		c0.06-0.05,0.14-0.1,0.22-0.16c-0.18,0.24-0.29,0.44-0.12,0.5l1.25-0.47c-0.16-0.06-0.4-0.19-0.68-0.33
		c0.75-0.5,1.61-1.1,0.84-1.37l1.03,0.18c1.07-0.75,0.89-0.59,2.24-1.23c0.11,0.19-0.25,0.42,0.03,0.53
		c0.94-0.81,2.62,0.43,2.76-0.19c0.81-0.26,0.28-0.56,0.78-0.81c-0.02,0.07-0.05,0.21,0.11,0.2l0.57-0.52
		c0.27,0.12-0.54,0.38,0.19,0.47c1.17-0.49,1.85-0.83,2.89-0.76c1.43-0.32-0.73-0.79,0.5-0.89c0.23,0.34,0.44,0.75,1.2,0.69
		c0.37-0.31,0.28-0.59,0.94-0.86l0.03,0.58c0.63-0.12,1.12-0.3,1.17,0.13c0.49-0.32,0.85-0.33,1.13-0.28
		c0.92-0.45-0.84-1.07-1.1-1.26c0.99,0.29,1.61-0.07,2.23,0.55l-0.81,0.28c1.86,0.46,1.59-1.09,2.56,0.06
		c-0.62,0.03-1.31,0.44-0.91,0.72l0.85-0.41c0.12,0.15-0.49,0.17-0.07,0.3c0.24-0.16,0.72-0.53,0.92-0.76l-0.01,0.04l1.58-0.31
		c-0.31,0.01-0.35,0.25-0.05,0.23l1.01-0.46c-0.3,0.2,0.05,0.34,0.53,0.39c1.37,0.02,0.92-1.55,2.04-1.04
		c-0.15,0.01-0.17,0.09-0.33,0.1l0.57,0.21c-0.03-1.36,3.15-0.55,3.13-1.94c0.82,0.45,0.09,0.33-0.83,1.11l0.86,0.29
		c-0.33,0.1-0.61,0.02-0.95,0.2c1.13,0.45,2.06-0.41,2.6-0.86c0.43,0.15-0.22,1.09,0.93,0.72c1.62-0.48-0.41-0.99,0.56-1.28
		l0.79,0.64c1.21-0.73,2.21-0.3,3.28-0.32c0.24-0.08,0.35-0.17,0.4-0.26c0.03,0,0.05,0,0.08,0c0.28,0.43,0.59,0.84,0.96,1.21
		c0.57,0.57,1.24,1.04,1.97,1.37c0.73,0.34,1.54,0.52,2.35,0.52c0.1,0,0.17,0,0.2,0l0.09,0c1.21-0.1,2.01-0.73,2.66-1.38
		c0.57-0.59,1.09-1.29,1.58-2.09c0.35-0.01,0.67-0.1,1.18-0.4l-0.13,0.61l0.61-0.18c0.03,0.03,0.05,0.07,0.08,0.1l-0.49,0.6
		c0.64,0.12,0.81-0.02,0.9-0.21c0.17,0.16,0.34,0.33,0.52,0.47c0.61,0.47,1.29,0.84,2.02,1.1c0.71,0.26,1.46,0.4,2.22,0.44l0.03,0
		l0.1,0c0.95-0.03,1.51-0.39,2-0.73c0.49-0.36,0.91-0.78,1.37-1.28c0.18-0.21,0.37-0.43,0.56-0.66l0,0.06c1-0.91,1.99,0.3,2.55-0.83
		c-0.39,0.88,0.78-0.09,1.22,0.25c-0.84,0.62-2.49,0.09-2.56,0.9c0.42,0.22,0.76-0.19,1.16,0.02c-0.27,0.13-0.65,0.37-0.74,0.54
		c1.36,0.37,2.06-0.59,2.86-0.82l-1.42,0.23c0.07-0.8,0.64-0.16,1-0.79c0.74,0.4,1.27-0.22,1.86,0.02c-0.16,0-0.16,0.08-0.32,0.08
		c1.56-0.06,2.05,1.17,2.67,1.17c0.61,0.07,1.74-0.38,1.31-0.68c0.49-0.22-2.06,0.29-1.21-0.71c0.94,1.1,1.81-0.46,3.79,0.25
		c-0.83,0.41,0.52,0.59-0.22,0.9c0.92-0.12,0.95-0.28,1.35-0.59l0.29,0.32c1.18-0.77,0.26-0.67,2.07-1.06
		c-0.6,0.25,0.75,0.46,0.29,0.68c0.17,0.01,0.34-0.01,0.51-0.03c0.27,0.2,0.56,0.39,0.87,0.51l0.17,0.06
		c0.57,0.18,1.17,0.28,1.77,0.28c0.76,0,1.52-0.16,2.22-0.45l0.39-0.21c0.05-0.04,0.09-0.08,0.14-0.12
		c0.21,0.41,0.47,0.79,0.81,1.15l0,0c0.01,0.01,0.01,0.01,0.02,0.02C173.16,53.5,173.16,53.51,173.17,53.51L173.17,53.51z
		 M40.8,70.73l-0.02,0.02C41.14,70.71,41.33,70.7,40.8,70.73z M92.16,59.53c-0.33-0.1-0.6-0.12-0.76,0.04
		C91.69,59.63,91.94,59.6,92.16,59.53z M110.58,55.67c-0.2-0.23-0.64,0.12-0.86,0.25C110.14,56,110.37,56.21,110.58,55.67z
		 M156.09,55.69l0.22,0.11C156.44,55.65,156.57,55.52,156.09,55.69z"/>
</g>
</svg>
