<svg xmlns="http://www.w3.org/2000/svg" viewBox="0 0 190.72 125.07"><defs><style>.cls-1{fill:#231f20;}.cls-2{fill:#fff;}</style></defs><g id="Layer_2" data-name="Layer 2"><path class="cls-1" d="M163.88,87.42h0Z" transform="translate(-29.64 -62.46)"/><polygon class="cls-1" points="165.06 54.75 165.05 54.74 165.03 54.74 165.06 54.75"/><path class="cls-2" d="M146.94,68.67a4,4,0,0,1,0,.48v.11a14.21,14.21,0,0,1-1.36,4.43,7,7,0,0,1,1.14.07c-.38-.42.13-1.11,1.5-1.18.95.33-.49.6,1.43.45-.43.39-.88.89-1.74.36-.07.2-.4.39-.48.59,1,.39,2.47,0,3.16,0a2.22,2.22,0,0,1-.74-.11c.46-.16.92-.33,1.38-.47l1.41-.33c.43.26.07.42-.28.58a15.38,15.38,0,0,1,1.8-.28c-.25.48-.24,1-1.4,1.15l2.65-.38c.16.21,1.27.69.92.85,1.35.54,3.64-.43,5.46.35a1.31,1.31,0,0,1,.75-.07c.87.28,1.65.68,2.49,1a10.33,10.33,0,0,0,1.33.38,6.89,6.89,0,0,0,1.52.25l.83,1.25c1.65.39-1.16-1.62,1.61-1,2,.44.41.95,1,1.45,1,0,3,0,4.35,1.39a8.74,8.74,0,0,1-1.53-.62l1,1c-1.88,0-2.8-.75-2,.42.45-.71,1.72-.25,2.88.4s2.33,1.31,2.87.63l.59.78c-.21-.15-.3-.08-.52-.23,1.08,1.59,1.81-.34,3.56,1.25.58.59.88,1.12.31,1l.34.14c.6-1.14,1.2-2.17,1.8-3.11l.47-.6a4,4,0,0,1,.6-.49l-.06-.17a8.61,8.61,0,0,0-3-1.22c.17-1.19-1.56-1.9-3.12-2.53-.78-.3-1.51-.62-2-.88s-.79-.58-.56-1L174,73.29l.17-.14a5.8,5.8,0,0,0-2.4-.78,5.15,5.15,0,0,0-1.52.1c-.45-.3,0-.34.05-.42-3-1.57-3.43-1.43-6.33-1.24l-.14-.69a19.7,19.7,0,0,1-3-.89,24.24,24.24,0,0,0-2.41-.6,6.85,6.85,0,0,0-2.55-.09.55.55,0,0,1,.39-.26,10.75,10.75,0,0,1-3-.12c-1-.14-2.05-.44-3-.49a7,7,0,0,0-3.4.25A6.3,6.3,0,0,1,146.94,68.67Z" transform="translate(-29.64 -62.46)"/><path class="cls-2" d="M123.15,79.45l-.13,0C122.64,80,122.84,79.8,123.15,79.45Z" transform="translate(-29.64 -62.46)"/><path class="cls-2" d="M203.51,116.28h0v.3Z" transform="translate(-29.64 -62.46)"/><path class="cls-2" d="M161.68,75.41a7.2,7.2,0,0,0-.78.4C161.93,76,161.54,75.67,161.68,75.41Z" transform="translate(-29.64 -62.46)"/><path class="cls-2" d="M182.81,84.62l-.56-.24A3.06,3.06,0,0,0,182.81,84.62Z" transform="translate(-29.64 -62.46)"/><polygon class="cls-2" points="132.18 12.88 132.12 12.85 132.04 12.94 132.18 12.88"/><path class="cls-2" d="M194.14,159.11a4.53,4.53,0,0,0-.17.55A2.21,2.21,0,0,0,194.14,159.11Z" transform="translate(-29.64 -62.46)"/><path class="cls-2" d="M115.69,79.38l.37-.1a2.12,2.12,0,0,1-.2.21,7,7,0,0,1,1,.74,4.9,4.9,0,0,1,1.33,1.89,8.14,8.14,0,0,1,1.51.38h0l.06,0a3.55,3.55,0,0,1,.46-.41,2.36,2.36,0,0,1,.86-.29c.17-1,1.39-.77,1-1.73l-2,1.46c1-.92,1.62-2.62,3.93-3.34a4.28,4.28,0,0,1-.87,1.24c.74-.07,1-.88,1.8-.9.26.91-2.5,1.72-3.39,3.11.83,0,2-2.06,2-.74.11-.87.71-1.17,1.39-1.48A3.67,3.67,0,0,0,127,78.09l.15.6a4.15,4.15,0,0,1,1.13-.93l-.54,1.12c1-1.13,2.5-.78,3.66-1.3l0,0c-1.14.38-1.35.28-1.39.07s.08-.63-.57-.57c1.27-.82,1.93-.85,2.5-.7,0-.13.11-.25.16-.38.33-.86.64-1.73.94-2.62a10.58,10.58,0,0,0,.32-2.42A57.38,57.38,0,0,0,122.1,75c.34.16.67.31,1,.5-.6.29-1.18.64-1.77,1-.56.08-1-.26.3-1-.92-.07-1.88,1.62-1.8,1.81-2.63,1.13.39-1.49-.37-1.07l-1,.67.28,0c-.31.41-.43.7-.66,1A6.62,6.62,0,0,1,116.85,79c-1,.5-.78-.13-1.15.1,0,0-.11,0-.3.14Z" transform="translate(-29.64 -62.46)"/><polygon class="cls-2" points="88.48 114.14 87.81 113.93 88.22 114.23 88.48 114.14"/><path class="cls-2" d="M116,175.84c.48.18.93.4,1.42.56-.37-.28-.7-.61-1-.91C116.34,175.62,116.42,175.94,116,175.84Z" transform="translate(-29.64 -62.46)"/><path class="cls-2" d="M118.16,177.61v0l.94.6Z" transform="translate(-29.64 -62.46)"/><polygon class="cls-2" points="151.57 21.96 151.77 22.13 151.81 21.24 151.57 21.96"/><path class="cls-2" d="M114.69,175.51l1.25.52C115,175.3,114.76,175.3,114.69,175.51Z" transform="translate(-29.64 -62.46)"/><path class="cls-2" d="M114.84,173.17c-.66,0-.12.7-1.31.37C114.33,173.76,115.78,174.44,114.84,173.17Z" transform="translate(-29.64 -62.46)"/><path class="cls-2" d="M113.85,175.16c.29.38.91,1,.79,1.26.17-.11,0-.66,0-.91Z" transform="translate(-29.64 -62.46)"/><path class="cls-2" d="M118.17,177.64l-.44-.28a1.4,1.4,0,0,0,.59,1Z" transform="translate(-29.64 -62.46)"/><polygon class="cls-2" points="112.64 120.85 111.26 120.45 111.66 120.65 112.64 120.85"/><path class="cls-2" d="M139.35,184.57c0-.55-.85-.42-1.75-.6l.16,0C137.34,184.66,138.34,184.68,139.35,184.57Z" transform="translate(-29.64 -62.46)"/><path class="cls-2" d="M137.39,183.94a5.64,5.64,0,0,1-.81-.2C136.4,184,136.89,183.88,137.39,183.94Z" transform="translate(-29.64 -62.46)"/><polygon class="cls-2" points="109.32 120.33 109.51 121 110.1 120.58 109.32 120.33"/><path class="cls-2" d="M142.9,184.05a5,5,0,0,0,1.15.07A3.72,3.72,0,0,0,142.9,184.05Z" transform="translate(-29.64 -62.46)"/><path class="cls-2" d="M194,157.64c-1.28,1.2.41.79-.84,1.82,0,.51,1-.84,1-.35C194.51,158.07,195,157.74,194,157.64Z" transform="translate(-29.64 -62.46)"/><path class="cls-2" d="M145.86,184.19l-1.41-.26c0,.1-.17.15-.4.19C144.93,184.19,145.88,184.38,145.86,184.19Z" transform="translate(-29.64 -62.46)"/><path class="cls-2" d="M129.68,180l-.06.28c.76.26,1.35.23.63-.16C130.05,180.17,129.88,180,129.68,180Z" transform="translate(-29.64 -62.46)"/><path class="cls-2" d="M95.36,132.42a15.08,15.08,0,0,1,.34,3.26c0,.58,0,1.18-.1,1.78.21-.53.38-1,.55-1.45a9.27,9.27,0,0,1,0-.94l.15.13a17.86,17.86,0,0,1-.32-4.78l.19-2.3c.07-.79.1-1.67.27-2.69l-.14-.05-.46.22c0-.14.05-.26.07-.37l-.13-.06c-.07.52-.2.91-.58.49a1.66,1.66,0,0,0,.37-.58,8.12,8.12,0,0,1-2.42-1.65,5.29,5.29,0,0,1-1.32-2.17,39.91,39.91,0,0,0-.22,5.47,7.83,7.83,0,0,1,1.08.84A9.52,9.52,0,0,1,95.36,132.42Z" transform="translate(-29.64 -62.46)"/><path class="cls-2" d="M94.3,111.83l-.34,0-1.58,1.76c-.07.83,1,1,0,2.29.13-.1.3-.23.41-.2l.72-1.86Z" transform="translate(-29.64 -62.46)"/><path class="cls-2" d="M123.13,178l-.08.27c-1-.67-1-.27-1.2-.15a17.08,17.08,0,0,0,2.06.78Z" transform="translate(-29.64 -62.46)"/><path class="cls-2" d="M117.58,175.65v.15S117.61,175.75,117.58,175.65Z" transform="translate(-29.64 -62.46)"/><path class="cls-2" d="M169.94,79.22a11.68,11.68,0,0,1,1.5.54C170.42,79.38,170.15,78.33,169.94,79.22Z" transform="translate(-29.64 -62.46)"/><path class="cls-2" d="M117.31,174a1.33,1.33,0,0,1-.91-.38c-.32-.45.16-.21.24-.37-.37-.1-1.26-.45-.49.45l.19,0a7,7,0,0,1,1.24,2A4.24,4.24,0,0,0,117.31,174Z" transform="translate(-29.64 -62.46)"/><path class="cls-2" d="M116.65,173.05v.15C116.82,173.25,116.89,173.25,116.65,173.05Z" transform="translate(-29.64 -62.46)"/><path class="cls-2" d="M143.85,184.87a.36.36,0,0,0,.27-.25A.47.47,0,0,1,143.85,184.87Z" transform="translate(-29.64 -62.46)"/><path class="cls-2" d="M166.18,185.07l.48-.07-.36,0Z" transform="translate(-29.64 -62.46)"/><path class="cls-2" d="M168.93,184.25a3.39,3.39,0,0,0-.45,0,6.85,6.85,0,0,1-1.82.73A3,3,0,0,0,168.93,184.25Z" transform="translate(-29.64 -62.46)"/><path class="cls-2" d="M152.73,186.85a8.28,8.28,0,0,1-2.47-3.2,12.32,12.32,0,0,1-2.35-.3c-.55.19-1.51.37-1.08.67l1,0c.88.6-1.89.63-.66,1-.68.15-1.4.35-2.2.46a7.23,7.23,0,0,1-1.25.08,6.3,6.3,0,0,1-1.33-.3l-.24-.82c0,.23,1.16.66,1.71.5-.84.22-2.69-1.5-3.69-.63l1.21.74c-1.38.14-3.25.8-4.84,0,.58.94.39,0,1.39,1.19-.82-1.26,4.35.76,2.87-.67a3.15,3.15,0,0,0,1.62,1,8.64,8.64,0,0,1,2,.86c0-.26-.54-.53.9-.31l.33-.2.1,0-.08,0,0,0a1.62,1.62,0,0,1-.7-.43c.77-.54,3-.38,3.79-.64.84.18-.36.28.09.58a8.49,8.49,0,0,0,1.15-.44c.1.57,2.27.88.25,1.27l1.83,0a8.75,8.75,0,0,0,1.53.24Q153.12,187.15,152.73,186.85Z" transform="translate(-29.64 -62.46)"/><path class="cls-2" d="M173.29,178.91l.05,0C173.14,178.86,173.17,178.87,173.29,178.91Z" transform="translate(-29.64 -62.46)"/><path class="cls-2" d="M145.71,186.92a6.15,6.15,0,0,0,.78.22A5.06,5.06,0,0,0,145.71,186.92Z" transform="translate(-29.64 -62.46)"/><path class="cls-2" d="M179,173.18a1.85,1.85,0,0,1,.82-.12C179.73,172.92,179.51,172.91,179,173.18Z" transform="translate(-29.64 -62.46)"/><path class="cls-2" d="M146.62,187.23l.87,0a7.4,7.4,0,0,1-1-.12C146.61,187.18,146.66,187.21,146.62,187.23Z" transform="translate(-29.64 -62.46)"/><path class="cls-2" d="M145.82,187.19l-.54-.09C145.19,187.19,145.26,187.25,145.82,187.19Z" transform="translate(-29.64 -62.46)"/><polygon class="cls-2" points="152.17 111.51 152.94 112.54 152.48 111.27 152.17 111.51"/><path class="cls-2" d="M210.2,120.79c-.39-2.49-1.49-2.57-2.51-2.58a3.32,3.32,0,0,0,.09-1.53,2.43,2.43,0,0,0-.82-1.1c.22-.48.39-1.26.86.2-.16-.83-.71-5.22-1.57-5.06.11-.31-.33-1.14-.49-1.32-.58-1.81-.56-2-1.25-3.74l.05.54c-1.12-.35-.78-1.35-1.52-2.67h.11a5.17,5.17,0,0,0-.86-2.31,2.56,2.56,0,0,1-.28-.49c-.07.3-.15.6-.21.88a27,27,0,0,0-.68,5.66c0,.16,0,.3,0,.45a3.47,3.47,0,0,0,.53,1.77h0a3.59,3.59,0,0,1,2.92,5.68,11.31,11.31,0,0,1,1.26,1.58,9.07,9.07,0,0,0,.39-1.24,17.37,17.37,0,0,1,.89,2.26c-.1.31-.4.11-.79-.21l.25.39c-.18.89-.7.52-1.23,0l.38-.92c-.62-.47-1.27-.88-1.71-.67a2.24,2.24,0,0,1,.39.69c-.17-.12-.31-.19-.37-.11s.19.28.43.62l-.83.67.37.06-.17,3c.3.5.63,1,.95,1.48s.55,1,.82,1.59a12.51,12.51,0,0,1,1.2,4.22c-.6-.87-1.07-.2-1.85-.27.85-.92-.43-2.61-.31-4.34-.05.91-.43.73-.57.5l.86,3.08c-.64-.08-.45.65-.79,1.45,1.31-.58.69,2.34,1,3.65-.43,0-.84-.31-.64-1.83-1.09,1.59,1.41,2.35.29,3.93,0-.38.15-.57,0-.75.23.93-.41,3-.7,2.46l.06-.37c-.14.61-.29,1.38-.41,2.21s-.38,1.68-.51,2.5c-.28,1.62-.31,3.05.11,3.39a6.32,6.32,0,0,1-1.3-.91c.69,1.75,1.27,3.58,1.85,5.51-.72-.71-3.29-.12-3.06-2.25a5.83,5.83,0,0,0-.9,2.4c.3-.3,1.66-.39,1.5.15-1.61,1-1,.76-2.58,2.07.44-.46,1.46.78,1,1.66-.13-.24-1.31-.59-1.3-1a22,22,0,0,1,.13,2.8c.09-.65-1-.68-1.62-.43.36-.07-1.09,1.74-1.3,2.36l.81-.69c-1.54,2.2.21,3.36-1.5,5.57,0-.46-1-1.74-1.91-.76a15,15,0,0,1,.43,2.85,7.55,7.55,0,0,1-.81,3.83l-.63.07a15.7,15.7,0,0,1-1,1.73c.1-.77.24-2.26.44-3.69s.42-2.88.64-3.81c-.92.54-.56-.11-1.54,1-.65.12.1-1,.37-1.33l-2.49,2.37c.36.24.07.88-.24,1.51s-.73,1.17-.44,1.38a29,29,0,0,0,2-3.34c.36.23.44,1,.19,2a5.29,5.29,0,0,1-.65,1.55,6.49,6.49,0,0,1-1.26,1.37c-.71.18-.67-1.44-.91-1.6a4.83,4.83,0,0,1-1.68,2l.48-1.05a3.08,3.08,0,0,0-1.15,1.51,2.25,2.25,0,0,1-1.66,1.22c-.51.3-2,.13-1.81.6,1.31.24,3.28,2.52,3.16,3.52-.1,0-.89.33-1.75.6a7.64,7.64,0,0,1-2.26.42c-1.24-.15.29-2.28-.78-2.41.1.21-.2.72-.35.92-.63.14-.16-.75-1.24,0,.25.85-2.35,1.31-.17.95-1,.85-1.24.61-2.6,1.3.71.28-.4,2.28-1.54,3.08,0-.23-.41-.37-.6-.42-.63.27-1.19.49-1.72.68l-1,.24a45,45,0,0,1-3.8,4.61c.54-.07,1.09-.14,1.67-.17a12.16,12.16,0,0,1,3.26-1.3l.47.35c1.09-.54,3.55-1,3.83-1.71a2.74,2.74,0,0,0,1.65-.1,8.53,8.53,0,0,0,1-.39,8.92,8.92,0,0,0,1-.6,40.84,40.84,0,0,1,3.71-2.37l-.28-.58a21.13,21.13,0,0,0,3.59-3.09l-.44-.38c1-1.22,3.34-2.24,5.15-3.95,0,.27-.48.65-.9.85a5.35,5.35,0,0,0,2-1.23,12.83,12.83,0,0,0,1.37-1.89,10.39,10.39,0,0,1,2.78-3.37,2.57,2.57,0,0,1,1-1.3l-.08.15.17-.21c.26-.18.53-.36.8-.57a3.79,3.79,0,0,0-.71.45,13.3,13.3,0,0,0,1.05-1.79l.7.09.09-.16c.64-.48.12-.65-.5-.58a3.1,3.1,0,0,0,.24-1.05c1.15,0,.75-1.87,2.08-2a6.36,6.36,0,0,1,.67-2.11c.26-.93.45-1.87.06-2.29.13,0,.29-.13.12.24a4.7,4.7,0,0,0,1-2.21h.86l-.08-1-.16-1.06c.82-.85,1.24-1.21,1.41.06.07-2.86.46-2.18.34-4.6l.45.25c.19-.8-.13-2.22.4-2.59,1.56-1.5,2-8.74,3-13.4-.78.43-.55-.1-.34-.78s.41-1.52-.17-1.6c.34-.28.52-1,.85-.18-.45-2.4.51-3.71-.74-5.27.32-.32.58.46.76.19-.1-.19-.41-.73-.23-1S210,120.42,210.2,120.79Zm-5-.67c-.25-.28-.21-.76,0-1.34A3.11,3.11,0,0,1,205.16,120.12Z" transform="translate(-29.64 -62.46)"/><path class="cls-2" d="M198.52,162.58c.95-.49,2.2-1,1.67-1.18l-.63-.07A3.86,3.86,0,0,1,198.52,162.58Z" transform="translate(-29.64 -62.46)"/><polygon class="cls-2" points="88.35 116.77 89.86 116.89 89.23 116.78 88.35 116.77"/><path class="cls-2" d="M201.14,144.46a1.93,1.93,0,0,1-.26,2l1.72-.08C202.11,145.74,201.63,145.09,201.14,144.46Z" transform="translate(-29.64 -62.46)"/><path class="cls-2" d="M205.87,116.76l-.11.29.6.52C206.21,117.33,206.08,117,205.87,116.76Z" transform="translate(-29.64 -62.46)"/><polygon class="cls-2" points="171.19 84.01 171.19 84.08 171.24 84.01 171.19 84.01"/><path class="cls-2" d="M203.77,116.62a.54.54,0,0,1,.28-.24C203.91,116.24,203.79,116.27,203.77,116.62Z" transform="translate(-29.64 -62.46)"/><path class="cls-2" d="M148.67,186.94c-.44-.16-.3.64-.54.41C147.62,188,151.11,186.71,148.67,186.94Z" transform="translate(-29.64 -62.46)"/><path class="cls-2" d="M123.37,180.8a6.42,6.42,0,0,1,1.93.61,19,19,0,0,0-2.09-1.19C123,180.32,122.58,180.44,123.37,180.8Z" transform="translate(-29.64 -62.46)"/><path class="cls-2" d="M127.29,182.91c-.25-.21-.54-.42-.84-.68C126.65,182.54,127.13,183,127.29,182.91Z" transform="translate(-29.64 -62.46)"/><polygon class="cls-2" points="105.21 123.12 106.04 123.03 105.44 122.67 105.21 123.12"/><polygon class="cls-2" points="102.45 121.64 102.37 121.5 102.31 121.58 102.45 121.64"/><path class="cls-2" d="M131.79,184.89c.49-.09,1-.27,1.49-.41l-1,0Z" transform="translate(-29.64 -62.46)"/><path class="cls-2" d="M125.31,182.3a10.4,10.4,0,0,0-1.24-.14A4.22,4.22,0,0,0,125.31,182.3Z" transform="translate(-29.64 -62.46)"/><path class="cls-2" d="M121.59,181.71a7.72,7.72,0,0,0,2.48.45,5.14,5.14,0,0,1-2.24-1.28C121.15,181,122.23,181.77,121.59,181.71Z" transform="translate(-29.64 -62.46)"/><path class="cls-2" d="M135.16,181.35c-.21.43-1.85.6-2.87-.42-1.31-.08-1.1,1.75-.28,3,.11-.21.16-.34,1.56-.29-.41-.32-2.64-1.55-1.43-1.6a3.92,3.92,0,0,1,1.41.48,3.39,3.39,0,0,0,.66.61c-.52-.78,2.42-.3,2.27-1.29l-1.55-.08C134.94,181.66,135.53,181.58,135.16,181.35Z" transform="translate(-29.64 -62.46)"/><path class="cls-2" d="M121,179.56l-.09,0C121.07,179.74,121.07,179.68,121,179.56Z" transform="translate(-29.64 -62.46)"/><path class="cls-2" d="M140.39,186.43c0,.13.17.33,0,.34l1.22.06A2.83,2.83,0,0,1,140.39,186.43Z" transform="translate(-29.64 -62.46)"/><path class="cls-2" d="M140.34,186.77h0Z" transform="translate(-29.64 -62.46)"/><path class="cls-2" d="M129.57,183l-.55-.14a6.45,6.45,0,0,1,1.61,1.32c1,.09,1.21,0,1.33-.15l-2.59-1Z" transform="translate(-29.64 -62.46)"/><path class="cls-2" d="M128.07,181.07c-1.51-.57-1.21,0-2.2-.23,2.44,1-.82-.05.79,1.06a11.2,11.2,0,0,1-1.36-.49c.41.27.79.54,1.15.82l0,0h0v-.08l0,0,.19-.14c.66.44.06.18-.19.14l-.06.06h0c.84.31,1.75.46,2.61.7a24.82,24.82,0,0,0-2.36-.91C127.26,181.69,128.62,181.89,128.07,181.07Z" transform="translate(-29.64 -62.46)"/><path class="cls-2" d="M121,179.56a3.86,3.86,0,0,0,.84.12,7.93,7.93,0,0,0-.94-.35Z" transform="translate(-29.64 -62.46)"/><path class="cls-2" d="M123.14,180.07a1.94,1.94,0,0,0-1.26-.39,12.82,12.82,0,0,1,1.33.54C123.29,180.17,123.32,180.13,123.14,180.07Z" transform="translate(-29.64 -62.46)"/><path class="cls-2" d="M80.22,110.21a2,2,0,0,1-.77,1,5.55,5.55,0,0,1-1.32.71,6.56,6.56,0,0,1-1.53.36,4.58,4.58,0,0,1-1.4,0,11.23,11.23,0,0,1-3.1-1c-1.2-.57-2.49-1.26-3.85-2.08s-2.77-1.72-4.2-2.73-2.77-2-4-3-2.4-1.91-3.4-2.79a23.63,23.63,0,0,1-2.29-2.24c1.42-1,3.08-2.24,5-3.67s3.8-3,5.78-4.62S69,86.79,71,85s3.75-3.54,5.36-5.29a48.51,48.51,0,0,0,4.13-5.11A15.24,15.24,0,0,0,82.73,70a4.07,4.07,0,0,0-.28-2.81,5.43,5.43,0,0,0-1.84-2.18,5.63,5.63,0,0,0-2.6-1,3.38,3.38,0,0,0-2.51.71c1.06.08,1.62.52,1.69,1.31a6.36,6.36,0,0,1-.86,3.1,27.55,27.55,0,0,1-2.76,4.25c-1.2,1.57-2.52,3.2-3.95,4.87s-2.9,3.33-4.44,5-3,3.12-4.28,4.47-2.48,2.48-3.46,3.4-1.63,1.52-2,1.8c.49-1,1.11-2.31,1.87-4s1.48-3.55,2.17-5.57,1.3-4.1,1.81-6.24a27.47,27.47,0,0,0,.79-6,11.44,11.44,0,0,0-.95-5,5.38,5.38,0,0,0-3.36-2.93,11.39,11.39,0,0,0-6.1-.52A15.64,15.64,0,0,0,46.05,65a26.24,26.24,0,0,0-5,4.41,45.79,45.79,0,0,0-4.32,5.67,55,55,0,0,0-3.43,6.12A46.14,46.14,0,0,0,30.93,87a20.68,20.68,0,0,0-1.23,5.7,4.91,4.91,0,0,0,0,1.53c.08.49.19,1,.31,1.41a6.83,6.83,0,0,0,.7,1.83,5.63,5.63,0,0,0,4.93,2.85,9.61,9.61,0,0,0,4.41-1c-1.88,0-3.18-.61-3.92-1.71a6.82,6.82,0,0,1-.92-4.32,23.15,23.15,0,0,1,1.38-6,46.91,46.91,0,0,1,3.06-6.77A58.57,58.57,0,0,1,43.82,74a44,44,0,0,1,4.59-5.36,16.52,16.52,0,0,1,4.41-3.21,3.87,3.87,0,0,1,3.64-.12,2.58,2.58,0,0,1,.95,2.17,16.58,16.58,0,0,1-.34,3.92,50.23,50.23,0,0,1-1.22,5c-.53,1.82-1.13,3.6-1.78,5.36-.49,1.31-1,2.55-1.44,3.73s-.92,2.26-1.34,3.22-.81,1.79-1.14,2.51a10.33,10.33,0,0,1-.79,1.5,7.72,7.72,0,0,1-1-1.44,16.15,16.15,0,0,1-1.11-2.2,18.46,18.46,0,0,1-.79-2.42,5.46,5.46,0,0,1-.19-2.08A8.27,8.27,0,0,0,44,88.63a10.49,10.49,0,0,0,0,4,12.21,12.21,0,0,0,1.29,3.33c.57,1,1.08,1.83,1.53,2.48a33,33,0,0,1-1.66,2.91c-.65,1-1.34,2.09-2.08,3.15-.9,1.19-1.8,2.27-2.69,3.25a11.32,11.32,0,0,1-2.51,2.14q-.49.68.27,1.35a6.36,6.36,0,0,0,2,1.13,11.72,11.72,0,0,0,2.42.65,2.33,2.33,0,0,0,1.71-.19A9,9,0,0,0,46,110.91c.63-.87,1.25-1.82,1.87-2.84s1.18-2,1.71-3,.94-1.79,1.23-2.36c.93,1,2.2,2.29,3.79,3.8s3.36,3,5.3,4.56a70.15,70.15,0,0,0,6,4.25,26.71,26.71,0,0,0,5.85,2.88,4.56,4.56,0,0,0,2.87.06A6.88,6.88,0,0,0,77,116.91a9,9,0,0,0,1.84-2,12.69,12.69,0,0,0,1.19-2.2,6,6,0,0,0,.49-1.78C80.56,110.39,80.46,110.17,80.22,110.21Z" transform="translate(-29.64 -62.46)"/><path class="cls-2" d="M128.71,89.61a17.13,17.13,0,0,0-5.27,2.11,10.82,10.82,0,0,0-.15-2.63,2.88,2.88,0,0,0-.77-1.47,3.75,3.75,0,0,0-1.53-.89l-2.45-.83a4.12,4.12,0,0,0-1.53-.27,4.2,4.2,0,0,0-1.25.24,5.63,5.63,0,0,0-1.16.61c-.39.27-.79.57-1.2.89.33-.9.59-1.59.8-2.08s.41-.94.61-1.35,0-.67-.37-1a4.81,4.81,0,0,0-1.5-.89,4.58,4.58,0,0,0-1.77-.3,1.11,1.11,0,0,0-1.14.76q-.68,1.61-1.89,4.56c-.45,1.08-.91,2.22-1.4,3.42l-.07,0a30.08,30.08,0,0,1-3.06,4.9,45.56,45.56,0,0,1-3.86,4.5A25.34,25.34,0,0,1,96,103.11a4.27,4.27,0,0,1-2.78,1c-.45-.08-.7-.44-.74-1.07a10.59,10.59,0,0,1,.12-2.18,17.28,17.28,0,0,1,.56-2.42,11.55,11.55,0,0,1,.67-1.8,7.26,7.26,0,0,0,2,.61A5.89,5.89,0,0,0,98,97.11a6.73,6.73,0,0,0,3.09-2.18,17.55,17.55,0,0,0,2.33-3.49,22.6,22.6,0,0,0,1.47-3.58,9.71,9.71,0,0,0,.52-2.39A2.42,2.42,0,0,0,104,83.15q-1-.62-1.86-1.14a8.1,8.1,0,0,0-1.63-.79,3.64,3.64,0,0,0-3.12.21,13,13,0,0,0-3,2.51,28,28,0,0,0-3,4c-.49.78-1,1.58-1.4,2.41a.61.61,0,0,0-.28.16,29.5,29.5,0,0,1-3.07,4.9,44.22,44.22,0,0,1-3.85,4.5A25.34,25.34,0,0,1,79,103.11a4.27,4.27,0,0,1-2.78,1c-.45-.08-.7-.44-.74-1.07a10.59,10.59,0,0,1,.12-2.18,17.28,17.28,0,0,1,.56-2.42,11.55,11.55,0,0,1,.67-1.8,7.26,7.26,0,0,0,2,.61A5.89,5.89,0,0,0,81,97.11a6.73,6.73,0,0,0,3.09-2.18,17.55,17.55,0,0,0,2.33-3.49,22.6,22.6,0,0,0,1.47-3.58,9.71,9.71,0,0,0,.52-2.39,2.42,2.42,0,0,0-1.35-2.32q-1-.62-1.86-1.14a8.1,8.1,0,0,0-1.63-.79,3.64,3.64,0,0,0-3.12.21,13,13,0,0,0-3,2.51,28,28,0,0,0-3,4,38.44,38.44,0,0,0-2.6,4.84,28.15,28.15,0,0,0-1.75,5,15,15,0,0,0-.46,4.44,5,5,0,0,0,1.29,3.27,11.5,11.5,0,0,0,1.41,1.17,10.52,10.52,0,0,0,1.9,1.07,7,7,0,0,0,2.08.58,3.27,3.27,0,0,0,2-.37,25.86,25.86,0,0,0,4-2.81,38.28,38.28,0,0,0,3.85-3.8c.18-.2.33-.42.51-.62a12.74,12.74,0,0,0,0,1.51,5,5,0,0,0,1.29,3.27,11.5,11.5,0,0,0,1.41,1.17,10.52,10.52,0,0,0,1.9,1.07,7,7,0,0,0,2.08.58,3.27,3.27,0,0,0,2-.37,25.86,25.86,0,0,0,4-2.81,35.19,35.19,0,0,0,2.66-2.54c-.86,2.16-1.7,4.24-2.48,6.21q-1.41,3.56-2.51,6.4c-.74,1.9-1.27,3.3-1.59,4.19a1.41,1.41,0,0,0,.4,1.57,4.94,4.94,0,0,0,3.64,1.37c.61,0,1-.28,1.1-.73.21-.74.6-2,1.19-3.8s1.34-3.84,2.24-6.12,1.91-4.69,3-7.2,2.3-4.83,3.52-7A34.88,34.88,0,0,1,114.2,92,7.66,7.66,0,0,1,118,89.27c.25.16.37.52.37,1.07a8.68,8.68,0,0,1-.21,1.81,11.7,11.7,0,0,1-.62,1.93,6.81,6.81,0,0,1-.82,1.5,12.42,12.42,0,0,1-1.62,1.56c-.76.63-1.56,1.34-2.39,2.11s-1.68,1.57-2.51,2.39a11.38,11.38,0,0,0-2,2.45,4.94,4.94,0,0,0-.74,2.32,2.34,2.34,0,0,0,1.14,2,2.59,2.59,0,0,0,2.2.46,7.07,7.07,0,0,0,2.39-1.13,18.62,18.62,0,0,0,2.66-2.39c.88-.94,1.7-1.87,2.48-2.81a27.21,27.21,0,0,0,2-2.7c.55-.86,1-1.53,1.2-2a6.27,6.27,0,0,1,1.71-1.71c.94-.74,2-1.49,3.18-2.27s2.36-1.47,3.52-2.08a17.62,17.62,0,0,1,2.79-1.23A5.71,5.71,0,0,0,128.71,89.61Zm-33.09,3c.42-.78.93-1.61,1.53-2.51s1.2-1.75,1.83-2.54A8.86,8.86,0,0,1,100.54,86a13.64,13.64,0,0,1-.58,2.51,13.34,13.34,0,0,1-1.22,2.79A8.72,8.72,0,0,1,97,93.43a2.35,2.35,0,0,1-2,.68A4.67,4.67,0,0,1,95.62,92.64Zm-17,0c.43-.78.94-1.61,1.54-2.51s1.2-1.75,1.83-2.54A8.86,8.86,0,0,1,83.58,86,13.64,13.64,0,0,1,83,88.47a13.34,13.34,0,0,1-1.22,2.79,8.72,8.72,0,0,1-1.72,2.17,2.35,2.35,0,0,1-2,.68A4.8,4.8,0,0,1,78.65,92.64Z" transform="translate(-29.64 -62.46)"/><path class="cls-2" d="M219.69,77.51a5.74,5.74,0,0,0-3-2.57c-.77-.2-1.62-.4-2.54-.58a25.36,25.36,0,0,0-3-.4c.25-.24.48-.49.71-.73l.64-.74a1.89,1.89,0,0,0,.06-2.57,5.46,5.46,0,0,0-2.45-2.14,2,2,0,0,0-2.39.12,39.09,39.09,0,0,0-4.16,5.94c-2.57.16-5,.38-7.29.64s-4.47.63-6.55,1.07a1.39,1.39,0,0,0-.86,1.47c0,.37.11.76.19,1.17a5.51,5.51,0,0,0,.43,1.28,10.27,10.27,0,0,0,.64,1.14,4.6,4.6,0,0,0,.83,1,1.57,1.57,0,0,0,1.53.61,24.17,24.17,0,0,1,4-2.15,21.44,21.44,0,0,1,4.41-1.28c-.45.86-.87,1.72-1.26,2.6s-.79,1.79-1.19,2.73c-.21.4-.48,1-.83,1.68s-.74,1.58-1.19,2.6-1,2-1.5,3.06-1.12,2.06-1.69,3.13a30.84,30.84,0,0,1-1.71,2.84c-.57.84-1.1,1.56-1.59,2.18-1,1.22-1.84,1.45-2.45.67q-1.35-1.91,5.39-14.14c.32-.58.12-1.15-.62-1.72a7.49,7.49,0,0,0-1.07-.67,4.21,4.21,0,0,0-1.25-.43,1.86,1.86,0,0,0-2,.31,64.53,64.53,0,0,0-4.6,9.12,41.23,41.23,0,0,0-2.69,8.57,5.11,5.11,0,0,0,1.59,3.67,4.6,4.6,0,0,0,3.49,1.47,7.91,7.91,0,0,0,3.74-2.26,23.45,23.45,0,0,0,3.61-4.35,37.35,37.35,0,0,0-.77,4.2,16.81,16.81,0,0,0-.09,3.27c.37,3.43,1.68,5.65,3.92,6.68a4.49,4.49,0,0,0,5.51-.86q-4.16,0-4.16-5.82a30.19,30.19,0,0,1,.76-6.43,62.8,62.8,0,0,1,2.24-7.59,73.36,73.36,0,0,1,7.53-15.19,33.08,33.08,0,0,1,4.62.53,18.09,18.09,0,0,1,3.65,1.07q3.18,1.35,2.75,3.49a2.53,2.53,0,0,0,1.23-2.21A5.89,5.89,0,0,0,219.69,77.51Z" transform="translate(-29.64 -62.46)"/><path class="cls-2" d="M164.31,91.29a2.94,2.94,0,0,0-.92-.31.57.57,0,0,0-.64.37c-.65,1.23-1.39,2.45-2.2,3.68s-1.67,2.36-2.54,3.42a27,27,0,0,1-2.67,2.82,14.8,14.8,0,0,1-2.51,1.9,11.4,11.4,0,0,1,.55-3.12c.37-1.23.8-2.5,1.29-3.83s1-2.59,1.53-3.8,1-2.21,1.29-3a1.51,1.51,0,0,0-.22-1.5,4.47,4.47,0,0,0-1.44-1.31,5.56,5.56,0,0,0-2-.74,2.59,2.59,0,0,0-1.8.25,19,19,0,0,0-2.27,1.65,26.1,26.1,0,0,0-2.3,2.2c-.75.82-1.51,1.7-2.26,2.64s-1.46,1.87-2.11,2.81a5.29,5.29,0,0,1,.52-1.16c.3-.57.67-1.24,1.1-2s.88-1.57,1.35-2.45.9-1.74,1.31-2.6c.13-.33,0-.72-.39-1.17a4.57,4.57,0,0,0-1.51-1.1,4.43,4.43,0,0,0-1.86-.43,1.44,1.44,0,0,0-1.38.86,46.43,46.43,0,0,0-2.69,5.57q-1.23,3-2.21,5.85c-.65,1.9-1.22,3.65-1.71,5.27s-.86,2.9-1.1,3.88c-.13.37.05.74.52,1.11a5.43,5.43,0,0,0,1.62.85,5.07,5.07,0,0,0,1.83.28,1.35,1.35,0,0,0,1.23-.58c.45-.94,1.09-2.12,1.93-3.55s1.75-2.88,2.75-4.35,2-2.86,3-4.16a20.8,20.8,0,0,1,2.76-3c-.12.29-.34.91-.64,1.87s-.62,2-.92,3.22a31.4,31.4,0,0,0-.71,3.55,8.15,8.15,0,0,0,0,2.81,2.26,2.26,0,0,0,.92,1.23,6.59,6.59,0,0,0,1.84,1,8.7,8.7,0,0,0,2.14.46,3.59,3.59,0,0,0,2-.34,11.09,11.09,0,0,0,2.79-2.26,36.69,36.69,0,0,0,2.94-3.59c1-1.32,1.85-2.7,2.69-4.13s1.54-2.73,2.11-3.92c0-.12,0-.29-.24-.52A2.88,2.88,0,0,0,164.31,91.29Z" transform="translate(-29.64 -62.46)"/><path class="cls-2" d="M136.79,81.43c.29-.36.63-.84,1-1.44s.86-1.27,1.35-2,1-1.63,1.41-2.45.87-1.63,1.28-2.45a12.07,12.07,0,0,0,1.47-4.16,2.08,2.08,0,0,0-1.47-2.2,4.26,4.26,0,0,0-3.06-.43,2.46,2.46,0,0,0-2,2,14,14,0,0,1-.24,6.12q-.5,1.47-1.05,2.91a19.79,19.79,0,0,1-1.22,2.66,1.17,1.17,0,0,0,.12,1.23,2.13,2.13,0,0,0,1.23.73A1.09,1.09,0,0,0,136.79,81.43Z" transform="translate(-29.64 -62.46)"/><path class="cls-2" d="M185.47,154.63c-.2-.22-.51-.23-.92,0-1.14.66-2.22,1.32-3.24,2s-2.29,1.57-3.8,2.67c.2-.74.47-1.65.8-2.73s.67-2.22,1-3.43.7-2.37,1-3.52a26.53,26.53,0,0,0,.64-3,1.27,1.27,0,0,0-.52-1.16,5.18,5.18,0,0,0-1.56-1,4.82,4.82,0,0,0-1.78-.43,1.29,1.29,0,0,0-1.22.52c-.25.45-.69,1.17-1.32,2.17s-1.36,2.14-2.17,3.4-1.7,2.58-2.64,4-1.83,2.63-2.69,3.77-1.63,2.1-2.33,2.88a3.94,3.94,0,0,1-1.59,1.28c-.36.08-.42-.33-.15-1.22a23.09,23.09,0,0,1,1.25-3.19c.58-1.22,1.22-2.45,1.93-3.67a20.15,20.15,0,0,1,1.81-2.7.91.91,0,0,0,.06-1.28,3.82,3.82,0,0,0-1.38-1.13,5.6,5.6,0,0,0-1.83-.59,1.49,1.49,0,0,0-1.38.37,24.26,24.26,0,0,0-2.33,3.37,34.55,34.55,0,0,0-2,4c-.57,1.37-1.07,2.71-1.5,4a33.51,33.51,0,0,0-.95,3.52,1.94,1.94,0,0,0,.49,1.68,5.48,5.48,0,0,0,1.69,1.38,6.72,6.72,0,0,0,2.11.74,2.48,2.48,0,0,0,1.78-.25,18.67,18.67,0,0,0,2.35-1.9,32.11,32.11,0,0,0,2.48-2.57c.82-.94,1.63-1.93,2.42-3a32.05,32.05,0,0,0,2.11-3.09,14.84,14.84,0,0,1-.55,1.62c-.24.64-.49,1.29-.73,2s-.5,1.33-.77,2-.5,1.16-.7,1.56a10.27,10.27,0,0,1-2.24,2.21l-4.41,3.67q-2.47,2.09-4.92,4.5a26.93,26.93,0,0,0-3.45,4.08c-2.54-.73-3.52-3.62-2.92-8.7a65.21,65.21,0,0,1,5.08-17.51,87.4,87.4,0,0,1,4.62-9.13,66.94,66.94,0,0,1,5.42-7.89c.41-.62.27-1.27-.43-2a5.13,5.13,0,0,0-2.45-1.6,1.75,1.75,0,0,0-2.26.56,104.69,104.69,0,0,0-6.92,11.48A121.45,121.45,0,0,0,149,155.52l-.12.25-.13.24c-.53,1.27-1.08,2.53-1.65,3.8s-1.16,2.55-1.78,3.86-1.16,2.35-1.77,3.39a30.71,30.71,0,0,1-1.84,2.79c-1.18,1.35-1.61.63-1.28-2.14a28.74,28.74,0,0,1,1.1-5.33q.92-3.18,2.51-7.65c.65-1.76,1.39-3.54,2.2-5.36s1.72-3.71,2.7-5.67a68.24,68.24,0,0,1,6.18-10,1.7,1.7,0,0,0-.24-2.32,4.09,4.09,0,0,0-1.23-.86,5.7,5.7,0,0,0-1.47-.43,2.61,2.61,0,0,0-2.69.74,50.86,50.86,0,0,0-4.9,8.81c-1.1,2.21-2.16,4.5-3.18,6.89s-2,4.91-3,7.56c-.35.93-.65,1.81-.95,2.69-.39.59-.8,1.18-1.26,1.78a43,43,0,0,1-3.86,4.5,25.31,25.31,0,0,1-3.76,3.22,4.31,4.31,0,0,1-2.79,1c-.45-.08-.69-.44-.73-1.07a10.59,10.59,0,0,1,.12-2.18,17.24,17.24,0,0,1,.55-2.42,12.49,12.49,0,0,1,.68-1.8,7.2,7.2,0,0,0,2,.61,5.93,5.93,0,0,0,2.15-.18,6.79,6.79,0,0,0,3.09-2.18,18,18,0,0,0,2.33-3.49A22.6,22.6,0,0,0,137.5,151a10.22,10.22,0,0,0,.52-2.39,2.41,2.41,0,0,0-1.35-2.32c-.69-.41-1.32-.79-1.87-1.14a8,8,0,0,0-1.62-.79,3.64,3.64,0,0,0-3.12.21,13,13,0,0,0-3,2.51,27.32,27.32,0,0,0-3,4,39.82,39.82,0,0,0-2.61,4.84,28.91,28.91,0,0,0-1.74,5,15,15,0,0,0-.46,4.44,5,5,0,0,0,1.29,3.27,10.63,10.63,0,0,0,1.4,1.17,10.88,10.88,0,0,0,1.9,1.07,7.46,7.46,0,0,0,2.08.58,3.24,3.24,0,0,0,2-.37,24.93,24.93,0,0,0,4-2.81,36.68,36.68,0,0,0,3.35-3.26c-.22,1.07-.4,2.09-.53,3.07-.53,4,.22,6.43,2.27,7.29a5.86,5.86,0,0,0,4.16-.18,8.44,8.44,0,0,0,2.14-2.64c.41-.69.82-1.41,1.23-2.14s.81-1.49,1.22-2.27c.24-.4.48-.8.7-1.19l.65-1.13a18.68,18.68,0,0,0-1.41,7.47,6.12,6.12,0,0,0,1.47,4,5.16,5.16,0,0,0,2.94,1.59,5.85,5.85,0,0,0,2.94,0,3.63,3.63,0,0,0,1.13-.38l-.09.14a3.67,3.67,0,0,0-.64,3.15A4.6,4.6,0,0,0,155,184a6.46,6.46,0,0,0,2.54,1.23,3.9,3.9,0,0,0,2.2,0,12.11,12.11,0,0,0,4.23-3,41.84,41.84,0,0,0,4.1-5,57.7,57.7,0,0,0,3.61-5.85q1.65-3.06,2.88-5.57a4.51,4.51,0,0,1,1.29-1.53c1.26-1.06,2.58-2.07,3.94-3s2.85-1.93,4.44-2.91a3.42,3.42,0,0,0,1.17-1.35,4.25,4.25,0,0,0,.4-1.44A1.35,1.35,0,0,0,185.47,154.63Zm-57.22,1.14c.43-.78.94-1.61,1.53-2.51s1.21-1.75,1.84-2.54a8.54,8.54,0,0,1,1.56-1.63,14.52,14.52,0,0,1-.58,2.51,13.92,13.92,0,0,1-1.23,2.79,8.93,8.93,0,0,1-1.71,2.17,2.39,2.39,0,0,1-2,.68A4.54,4.54,0,0,1,128.25,155.77Zm35,19c-.65.9-1.33,1.77-2.05,2.63a31.3,31.3,0,0,1-2.17,2.36,23.41,23.41,0,0,1-2.08,1.8,4.16,4.16,0,0,1,.92-1.77c.57-.78,1.25-1.61,2-2.51s1.65-1.81,2.57-2.73,1.74-1.72,2.48-2.41A28.64,28.64,0,0,1,163.24,174.75Z" transform="translate(-29.64 -62.46)"/><path class="cls-2" d="M124.79,136.85a8.79,8.79,0,0,0,0-5.48,9.73,9.73,0,0,0-2.45-3.8,7.31,7.31,0,0,0-3.3-1.84,2.79,2.79,0,0,0-2.61.4,2.79,2.79,0,0,1,2.42,2.15,11.63,11.63,0,0,1,.19,4.86,43.27,43.27,0,0,1-1.56,6.74q-1.17,3.76-2.82,7.77c-1.1,2.68-2.32,5.33-3.64,8s-2.66,5.07-4,7.29a63.78,63.78,0,0,1-3.86,5.79,16.56,16.56,0,0,1-3.28,3.43c-.36.24-.59-.07-.67-.92a19.62,19.62,0,0,1,.15-3.71c.19-1.61.48-3.54.89-5.78s.93-4.66,1.56-7.23,1.39-5.23,2.27-8,1.86-5.44,3-8.05a1.29,1.29,0,0,0,.06-1.26,3.68,3.68,0,0,0-1-1.19,7.26,7.26,0,0,0-1.63-1,6.81,6.81,0,0,0-1.8-.55,4,4,0,0,0-1.56.06,1.29,1.29,0,0,0-.95.86c-.29.9-.77,2.2-1.44,3.92s-1.45,3.65-2.33,5.81-1.82,4.47-2.84,6.92-2.07,4.84-3.13,7.17-2.1,4.52-3.12,6.58-1.95,3.78-2.78,5.17a15.21,15.21,0,0,1-2.12,2.91c-.57.55-1,.48-1.16-.21a4.71,4.71,0,0,1,0-2.15,28.41,28.41,0,0,1,.8-3.36c.36-1.27.79-2.64,1.28-4.11s1-2.91,1.5-4.34,1-2.78,1.5-4.05.92-2.34,1.29-3.24q.86-2.21,1.8-4.78a53.55,53.55,0,0,0,1.63-5.14,36.29,36.29,0,0,0,.94-5,12.53,12.53,0,0,0-.15-4.29,6,6,0,0,0-1.65-3,5.51,5.51,0,0,0-3.61-1.28,12.14,12.14,0,0,0-4.9.92,20.2,20.2,0,0,0-4.81,2.78,33.24,33.24,0,0,0-4.5,4.2,44.24,44.24,0,0,0-3.95,5.11,49.12,49.12,0,0,0-3.21,5.63,42.48,42.48,0,0,0-2.27,5.6,10,10,0,0,0-.61,4.63,5.66,5.66,0,0,0,1.31,3,5.25,5.25,0,0,0,2.48,1.5,8.52,8.52,0,0,0,2.91.27,6.75,6.75,0,0,0,2.61-.73,3.14,3.14,0,0,0,1.53-1.53,5.06,5.06,0,0,1-1.75.58,3.35,3.35,0,0,1-1.5-.15,2.51,2.51,0,0,1-1.13-.83,2.46,2.46,0,0,1-.52-1.38,12.94,12.94,0,0,1,.49-4.84,32.84,32.84,0,0,1,2.14-5.69,46.93,46.93,0,0,1,3.31-5.79,45.68,45.68,0,0,1,3.89-5.08,22,22,0,0,1,4-3.58,6.35,6.35,0,0,1,3.48-1.35c.9,0,1.39.59,1.47,1.78a14.57,14.57,0,0,1-.52,4.41,53,53,0,0,1-1.8,5.78c-.78,2.11-1.53,4.07-2.27,5.91-.36.86-.82,1.93-1.34,3.22s-1.1,2.68-1.69,4.19-1.18,3.06-1.77,4.65-1.12,3.12-1.57,4.57-.8,2.74-1.07,3.88a8.08,8.08,0,0,0-.27,2.7,7.7,7.7,0,0,0,.86,2.69,8.94,8.94,0,0,0,1.65,2.27,7.87,7.87,0,0,0,2.23,1.56,5.67,5.67,0,0,0,2.67.52A3.45,3.45,0,0,0,84.23,179,16.19,16.19,0,0,0,86.49,176c.76-1.26,1.52-2.68,2.3-4.25S90.31,168.56,91,167l2-4.59c.65-1.47,1.22-2.71,1.71-3.74-.2.9-.45,2-.73,3.34s-.53,2.67-.74,4-.36,2.63-.46,3.83a10.65,10.65,0,0,0,0,2.72,6.1,6.1,0,0,0,1,2.45,8.43,8.43,0,0,0,1.84,1.93,8.59,8.59,0,0,0,2.36,1.29,9.1,9.1,0,0,0,2.63.52c.69,0,1.69-.68,3-2.14a51.59,51.59,0,0,0,4.35-5.82q2.39-3.61,5-8.18t4.93-9.24q2.32-4.68,4.13-9A65.31,65.31,0,0,0,124.79,136.85Z" transform="translate(-29.64 -62.46)"/></g></svg>