<?xml version="1.0" encoding="utf-8"?>
<!-- Generator: Adobe Illustrator 25.3.1, SVG Export Plug-In . SVG Version: 6.00 Build 0)  -->
<svg version="1.1" xmlns="http://www.w3.org/2000/svg" xmlns:xlink="http://www.w3.org/1999/xlink" x="0px" y="0px"
	 viewBox="0 0 200 200" style="enable-background:new 0 0 200 200;" xml:space="preserve">
<style type="text/css">
	.st0{fill-rule:evenodd;clip-rule:evenodd;fill:#FFFFFF;}
</style>
<g id="Layer_1">
	<g>
		<g>
			<path class="st0" d="M109.6,197.64c0.96-0.47,4.57-0.64,5.8-1.26C109.47,196.82,109.47,196.59,109.6,197.64z"/>
			<path class="st0" d="M4.11,93.95c-0.74,3.69-0.31,6.39-0.06,8.69C3.77,100.09,4.54,96.29,4.11,93.95z"/>
			<path class="st0" d="M98.54,197.54c0.21,0.14,0.63,0.24,1.06,0.22c0.43-0.03,0.98-0.06,1.51-0.09c-0.52-0.1-0.85-0.16-1.16-0.22
				C99.21,197.36,98.56,197.36,98.54,197.54z"/>
			<path class="st0" d="M104.45,197.52c-0.21,0.08-0.33,0.13-0.55,0.22c0.33,0.04,0.85,0.1,1.18,0.14c0-0.09,0.54-0.18,0.33-0.25
				C105.31,197.59,104.77,197.55,104.45,197.52z"/>
			<path class="st0" d="M113.99,1.7c3.34,0.74,7.12,1.58,10.37,2.3c1.24,0.37,2.59,0.78,3.95,1.19c2.88,0.41,5.69,2.27,8.32,3.02
				l-0.19-0.17c1.4,0.63,2.59,1.17,3.99,1.8c1.25,0.4,2.72,1.41,3.95,1.87c2.16,1.23,4.4,2.31,6.27,3.58
				c1.08,0.73,1.86,1.27,2.57,1.5c1.67,1.14,3.24,2.22,5.02,3.43c0.67,0.3,1.73,1.28,2.28,1.53c0.52,0.31,0.92,0.58,1.27,0.73
				c-0.72-1.01-2-1.92-3.16-2.77l-5.94-4.06c-1.76-1.26-3.41-2.46-5.17-2.98c-1.37-0.73-2.63-1.4-3.9-2.07
				c-2.09-0.85-4.63-2.43-6.75-2.95c-0.87-0.37-1.74-0.74-2.52-1.07c-1.53-0.62-3.02-1.39-4.26-1.46c-0.57-0.18-1.14-0.37-1.59-0.51
				c-0.44-0.19-0.89-0.33-1.36-0.41c-0.46-0.13-0.8-0.22-1.26-0.35c-3.94-1.35-7.87-2.33-11.88-2.91c-1.06-0.15-1.67-0.11-1.71,0.1
				C112.26,1.27,112.94,1.52,113.99,1.7z M151.29,15.41c0.03,0.02,0.06,0.04,0.09,0.06c0.35,0.12,0.77,0.47,1.29,0.85
				c-0.54-0.36-0.99-0.66-1.29-0.85c-0.03-0.01-0.07-0.03-0.1-0.04L151.29,15.41z"/>
			<path class="st0" d="M184.13,157.83c-0.01,0.02-0.03,0.04-0.04,0.07c-0.05,0.08-0.08,0.17-0.14,0.24L184.13,157.83z"/>
			<path class="st0" d="M197.49,116.2c0-0.06,0-0.12,0-0.17c0.42-2.56,0.79-5.14,0.6-7.9c-0.09,0.2-0.16,0.42-0.23,0.64
				c0.03-0.56,0.04-1.13-0.03-1.61l-0.08-0.36l0.04-0.47c0.03-2.14,0.05-4.27,0.08-6.53c-0.07-0.35-0.13-0.7-0.24-1.29
				c-0.59-6.13-1.66-12.53-3.31-18.51c-0.17-0.45-0.38-0.99-0.51-1.33c-1.51-5.16-3.2-9.86-5.28-15.04
				c-0.2-0.29-0.54-0.78-0.74-1.07c-0.22-0.54-0.39-0.97-0.57-1.4c-0.13-0.82-0.57-1.65-1.18-2.51c-1.7-3.17-3.09-6.66-5.23-8.88
				c-2.95-3.62-6.23-8.33-9.76-11.83c-1.73-1.83-2.73-3.72-4.49-5.39c-1.72-1.53-2.01-0.93-4.46-2.96
				c-2.64-1.99-5.19-4.27-8.05-6.32l-0.17,0.23c-0.04-0.14-0.16-0.35,0.17-0.23l-1.11-0.78l-0.16,0.23
				c-1.21-0.84-2.33-1.61-3.45-2.39c-0.32-0.13-0.85-0.34-1.28-0.52l-0.41-0.19l-0.25-0.23c-0.98-0.78-2.4-1.25-2.92-1.92
				c0.66,0,2.8,1.26,2.99,0.95c-3.96-2.45-6.43-3.4-8.11-3.31c-0.78-0.45-1.88-1.01-1.8-1.18c0.64-0.52-1.1-1.11-3.35-1.88
				c-1.83-0.59-2.38-0.44-2.32,0.02c-0.52-0.22-0.82-0.35-1.24-0.52c-0.49-0.28-1.02-0.48-1.35-0.54l0.18,0.15
				c-0.51-0.25-0.91-0.43-1.34-0.57c-1.58-0.56-4.09-1.19-3.25-1.6c0.67-0.28-0.36-0.74-2.2-1.31c-1.53-0.44-3-1.11-4.67-0.94
				c1.85,0.58,4,1.65,3.3,2.03c-0.79-0.14-1.71-0.38-2.64-0.6c-0.53-0.5-0.94-0.98-1.8-1.5c-0.2-0.26-0.41-0.48-1.31-0.71
				c-0.12-0.62-0.55-1.24-1.53-1.83c0.88,0.06,1.82,0.15,2.76,0.24c2.85,0.49,5.74,1.35,8.14,2.57c1.55,0.8,3.53,1.39,5.37,1.68
				c2.54,1.08,4.97,2.11,7.51,3.19c6.26,2.87,12.15,6.22,17.65,9.56l-0.11-0.05c3.18,1.97,5.94,4.87,9.02,7.18
				c1.2,0.76,2.61,2.17,3.99,3.6c0.43,0.41,0.94,0.89,1.44,1.38c0.98,0.86,1.98,2.01,2.93,3.04c2.95,3.63,5.77,6.8,8.24,10.24
				c-0.14-0.33-0.14-0.33-0.22-0.54c0,0,0,0,0.12,0.19l0.1,0.35c0.8,1.18,1.7,2.69,2.45,3.34l0.42,0.58l0.34,0.61
				c1.21,2.18,2.22,4.69,3.52,6.3c0.31,0.51,0.4,0.6,0.66,1.13c0.67,1.51,1.39,3,2.02,4.14c0.14,0.34,0.16,0.33,0.22,0.3
				c0.11,0.09,0.11-0.04,0.04-0.41c-0.83-3.63-2.48-7.27-5.01-11.19c-0.64-1.01-1.54-2.42-2.24-3.53
				c-4.36-7.98-9.92-13.7-16.02-18.62c-0.83-0.83-1.52-1.48-2.18-1.82c-0.82-0.68-1.65-1.34-2.24-1.57c-0.82-0.67-1.46-1.19-2.1-1.7
				c-1.16-1-2.23-1.91-3.39-2.91c-4.91-4.26-10.61-7.47-16.48-10.09c-2.64-1.24-5.57-2.13-8.36-3.6c-2.06-1.16-4.79-2.26-3.89-0.89
				c0.13,0.3-1.65-0.22-2.76-0.57c-2.12-0.6-4.53-1.47-6.81-1.94c-0.23-0.01-0.68-0.11-0.9-0.22c-0.43-0.2-0.89-0.3-1.58-0.33
				c-0.25,0.01-0.58-0.06-1.03-0.21c-1.97-0.64-3.97-1.19-6.01-1.63c-0.64-0.21-1.48-0.4-2.61-0.55c-0.13-0.25-0.5-0.45-1.57-0.58
				c-0.5-0.11-0.85-0.16-1.46-0.22l-0.36,0.06c-0.12,0.01-0.12,0.01-0.12,0.01c0.12-0.02,0.25-0.04,0.48-0.07
				c-0.24-0.22-0.73-0.35-1.95-0.36l-0.13-0.04l0,0.02c-0.12-0.16-0.61-0.2-1.47-0.22c-0.23,0.06-0.84,0.11-0.97,0.05
				c-2.26,0.17-4.53,0.5-6.78,0.89c-1.25-0.1-2.63-0.04-3.89,0.11c-5.49,0.32-10.68,1.12-16.15,2.32l0.01,0.05l0.01,0.05l-0.02-0.09
				c-2.4-0.03-5.45,1.32-8.18,1.94c-1.22,0.04-2.78,0.57-4.09,1.07c-0.83,0.12-1.95,0.49-3.16,0.94c-1.44,0.53-0.86,0.7-1.7,1.11
				c-0.64,0.31-1.23,0.69-1.39,0.92c-0.38,0.3-2.19,1.11-1.72,1.28c0.2,0.16,0.6,0.19,1.51-0.04c0.38,0.27,1.46,0.14,3.02-0.29
				l0.29-0.18l0.01,0.02c-0.11,0.04-0.22,0.09-0.3,0.16c1.05,0.18,2.23,0.38,3.28,0.56c0.14,0.37,0.59,0.6,2.01,0.3
				c-0.77,0.48-1.52,0.96-2.23,1.48c-2.08,1.19-4.87,2.16-6.03,3.71c-2.81,2.05-6.14,4.02-8.37,6.4l0.18-0.14
				c-1.32,1.41-3.5,2.69-4.42,4l-0.02-0.02c-0.58,0.62-1.63,1.4-2.2,2.17l-0.2,0.31l-0.36,0.3c-1.26,1.24-2.54,2.48-3.85,3.77
				c-1.7,1.35-3.4,2.79-4.72,4.74c-1.76,2.39-5.18,6.14-7.1,9.15c-1.95,3.21-4.96,6.3-6.01,9.68l0.16-0.14
				c-0.08,0.19-0.1,0.18-0.1,0.18l-0.06-0.03c-2,3.44-3.78,7.04-5.33,10.76c-1.09,2.16-1.97,4.58-2.67,7.3
				c-0.2,0.64-0.4,1.28-0.59,1.92c-1.74,4.91-3.15,10.17-3.65,15.61C4.33,95.14,4,97.66,4.5,99.99c0.07,0.42,0.04,0.63-0.05,0.84
				c-0.23,0.63-0.29,1.47-0.3,2.53c-0.59,2.54,0.04,5.26,0.19,7.89l0.08,0.09c0.01,0,0.02,0.01,0.02,0.01l-0.01,0l0-0.01
				c-0.02,0-0.05-0.01-0.08-0.09c-0.23,1.09-0.07,2.78,0.23,4.23l0.02,0c-0.15,0.99,0.38,2.82,0.44,4.11
				c0.11,0.3,0.14,0.61,0.11,0.84c-0.13,0.57,0.01,1.51,0.26,2.66c0.19,1.7,0.63,3.47,1.39,4.68l0,0c0.25,1.24,0.57,2.4,1.12,3.4
				c0.45,1.48,0.87,2.85,1.29,4.22c0.88,2.09,1.55,4.99,2.69,6.85c0.35,0.88,0.71,1.76,1.02,2.54c0.64,1.52,1.15,3.12,1.98,4.05
				c0.27,0.53,0.54,1.06,0.76,1.48c0.18,0.44,0.39,0.87,0.68,1.25c0.24,0.41,0.41,0.72,0.64,1.13c1.83,3.74,3.92,7.21,6.34,10.46
				c0.64,0.86,1.1,1.26,1.28,1.13c0.18-0.13-0.12-0.79-0.73-1.66c-1.84-2.88-3.92-6.15-5.71-8.96c-0.61-1.14-1.28-2.39-1.95-3.64
				c-1.75-2.33-2.42-5.63-3.75-8.02l0.01,0.25c-0.54-1.44-1.01-2.66-1.55-4.09c-0.6-1.16-0.93-2.93-1.47-4.12
				c-0.18-0.65-0.37-1.29-0.56-1.93c0.06,0.11,0.11,0.23,0.18,0.34l-0.02,0.01c0.15,0.28,0.26,0.46,0.42,0.74
				c-0.06-0.3-0.11-0.51-0.16-0.79c0,0.02,0,0.04-0.01,0.06l0-0.1c0,0.02,0.01,0.03,0.01,0.04c0.05-0.26-0.06-0.72-0.09-1.13
				c0.07-0.58-0.18-1.59-0.44-2.6l-0.06,0.02l-0.02,0.01l0.08-0.02c0.02-0.23-0.01-0.53-0.06-0.86c0.77,3.02,1.75,5.99,2.86,8.89
				c0.99,2.75,2.43,5.44,3.37,8.45c0.64,2.27,1.79,4.98,2.12,3.38c0.12-0.31,1.01,1.32,1.55,2.36c1.07,1.92,2.17,4.24,3.45,6.19
				c0.15,0.17,0.4,0.56,0.48,0.79c0.16,0.44,0.42,0.84,0.88,1.36c0.18,0.17,0.37,0.46,0.58,0.88c2.81,5.5,6.28,10.72,11.54,14.87
				c0.69,0.62,1.51,1.46,2.02,2.1c0.82,1.33,2.28,2.69,3.66,3.78c4.11,3.65,8.34,6.75,13.07,9.78l0.02-0.04l0.03-0.04l-0.05,0.08
				c1.68,1.72,4.78,2.92,7.16,4.41c0.89,0.83,2.37,1.56,3.65,2.13c0.67,0.5,1.72,1.04,2.9,1.57c1.39,0.65,1.1,0.11,1.99,0.41
				c0.67,0.23,1.36,0.38,1.63,0.33c0.48,0.06,2.33,0.76,2.12,0.32c-0.03-0.26-0.29-0.56-1.09-1.04c-0.08-0.46-0.93-1.12-2.34-1.93
				l-0.34-0.08l0.01-0.02c0.11,0.05,0.22,0.09,0.33,0.1c-0.62-0.87-1.31-1.84-1.92-2.72c0.19-0.43-0.04-1.01-1.98-2.11
				c-0.18-0.38-0.58-0.84-0.74-1.27c1.4,0.65,2.95,1.27,4.3,1.74c1.46,0.5,2.31,0.45,2.42,0.18c0.35-0.31-1.28-0.9-2.26-1.4
				c-1.17-0.58-2.07-1.23-2.13-1.58c-0.13-0.47,1.55,0.25,2.41,0.44c2.95,0.73,6.69,2.64,10.04,3.09c1.56,0.35,3.53,1.28,4.89,1.1
				l-0.09-0.07l0.11,0.02l-0.01,0.05c2.29,0.47,4.65,1.19,6.6,1.16c-0.21-0.08-0.4-0.15-0.5-0.21c0.11,0.02,0.11,0.02,0.11,0.02
				l0.4,0.19c2.09,0.33,4.62,0.79,6.35,0.54l-0.21-0.07l0.21,0.03l-0.01,0.05c3.36,0.15,6.85,1.08,10.57,0.36
				c2.94-0.45,8-0.68,11.5-1.45c3.65-0.89,7.96-0.95,11.09-2.6l-0.21-0.01c0.19-0.08,0.19-0.06,0.19-0.06l0.02,0.07
				c6.95-1.85,13.79-4.52,20.19-8.06c4.14-1.97,8.28-4.36,12.08-7.28c0.01,0,0.01,0,0.01-0.01c0.15,0.16,0.55,0.08,1.31-0.48
				l0.38-0.46l0.02,0.02c0,0-0.23,0.26-0.4,0.44c0.35,0,0.78-0.07,1.31-0.27c-0.96,0.75-2,1.73-2.95,2.19l0.08-0.07
				c-1.03,0.58-2.46,1.68-3.46,2.09c-2.29,0.77-4.64,2.97-7.14,4.13c-0.56,0.28-1.33,0.65-2.09,1.02c-1.41,0.46-3.16,1.7-4.69,2.14
				c-0.78,0.32-1.36,0.56-1.95,0.8c-2.55,1.21-5.05,2.38-7.73,2.95l-0.39,0.16l-0.3,0.08c-7.93,1.93-13.71,4.03-19.83,5.46
				c11.63-1.21,22.93-4.7,33.33-9.76c0.76-0.38,1.43-0.72,2.29-1.16c1.91-0.48,4-1.81,5.94-3.14c1.09-0.68,2.08-1.31,3.17-1.99
				c1.06-0.53,2.33-1.51,3.35-2.11c0.42-0.34,0.68-0.52,0.96-0.68c1.03-0.43,2.16-1.44,3.32-2.39c0.34-0.26,0.77-0.59,1.04-0.79
				c0.45-0.29,1.05-0.6,1.39-0.86c0.5-0.49,0.98-0.97,1.47-1.44c0.31-0.11,0.72-0.4,1.4-1.07l0.12-0.06l-0.02-0.02
				c0.2,0.02,0.57-0.29,1.2-0.89c0.12-0.21,0.51-0.67,0.65-0.72c3.23-3.77,6.02-8.03,8.61-12.23c1-1.48,1.89-3.12,2.63-4.62
				c0.74-0.98,1.4-2.04,1.8-3.08c0.32-0.44,0.64-0.86,0.99-1.27c2-5.2,4.2-10.57,4.98-15.64c0.63-2.31,1.92-4.97,1.64-6.88
				c0.54-3.43,1.5-7.18,1.39-10.44L197.49,116.2z M178.79,42.82l-0.06,0.04c0,0,0.03-0.02,0-0.13L178.79,42.82z M57.05,8.8
				c-0.03-0.06-0.17-0.11,0.15-0.27c0.09-0.09,0.32-0.13,0.42-0.21C57.34,8.55,57.02,8.73,57.05,8.8z M69.15,197.87
				c-0.03,0.06,0.05,0.2-0.3,0.09c-0.13,0-0.32-0.14-0.44-0.15C68.77,197.85,69.11,197.95,69.15,197.87z M191.46,98.61l-0.05,0
				l0-0.22L191.46,98.61z M190.85,111.81c0.13-2.1,0.31-4.21-0.03-6.1C191.23,107.38,191,109.59,190.85,111.81z M191.01,71.97
				c-0.1-0.09-0.31-0.63-0.43-0.71c-0.06-0.23-0.14-0.57-0.19-0.8C190.61,71.01,190.88,71.65,191.01,71.97z M190.21,84.1l0.05-0.01
				c-0.03,0.12-0.07,0.47-0.15,0.26C190.11,84.36,190.18,84.23,190.21,84.1z M188.33,104l0.02,0l-0.02,0.11L188.33,104z
				 M186.12,96.49c0.02,0.42,0.16,0.63,0.1,0.94c-0.06,0.84-0.21-0.09-0.34-0.51C186,96.92,186.1,96.92,186.12,96.49z M184.82,111.3
				l0.07,0.01l-0.05,0.21C184.81,111.61,184.82,111.3,184.82,111.3z M164.77,163.02c0.16-0.29,0.32-0.59,0.49-0.89
				c0.1-1.44,1.93-3.97,3.3-6.9c-0.56,2.11-2,4.55-3.3,6.9c-0.01,0.12-0.09,0.29-0.07,0.4
				C165.12,162.61,164.98,162.77,164.77,163.02z M41.36,161.57c-0.11-0.06-0.26-0.23-0.35-0.27l-0.02,0.02l-0.06-0.07
				c-0.22-0.22-0.15-0.15-0.22-0.22l0.01-0.01c0,0,0.08,0.07,0.21,0.23c0.08,0.06,0.08,0.06,0.08,0.06l0.18,0.12
				C41.25,161.47,41.3,161.51,41.36,161.57z M24.48,156.56c-0.07-0.08-0.12-0.16-0.12-0.16c0.18,0.12,0.25,0.06,0.21-0.16
				c-0.01-0.03-0.04-0.06-0.05-0.09c0.03,0.02,0.05,0.05,0.08,0.08c-0.9-1.71-1.66-3.99-0.9-3.77c0.9,1.29,1.86,3.18,2.97,4.47
				c0.5,0.74,1.07,1.57,1.64,2.4c0.88,2.13,1.04,2.55,0.6,3.2c-0.54-0.94-1.33-1.87-2.15-3.02c-0.37-1.04-1.32-2.12-2.19-3.26
				C24.61,156.46,24.56,156.5,24.48,156.56z M27.15,125.32l0.08-0.02l0,0.2L27.15,125.32z M25.88,131.07
				c-0.17-0.16-0.27-0.19-0.37-0.2c-0.1,0.57-0.25,1.05-0.48,1.32c0.11-0.55,0.09-1.39,0.48-1.32c0.06-0.35,0.12-0.7,0.12-1.17
				C25.79,130.27,25.68,130.51,25.88,131.07z M22.8,148.03c0,0-0.05-0.1-0.1-0.19c0.27,0.49,0.69,1.13,1,1.46l-0.07,0.04
				C23.39,148.97,23.16,148.59,22.8,148.03z M21.29,138.94c-0.22-0.37-0.33-0.56-0.39-0.65c-0.07-0.2-0.14-0.41-0.18-0.51
				C20.87,138.07,21.11,138.55,21.29,138.94z M18.29,126.47c-0.08,0.02-0.22-0.17-0.36-0.46c0,0,0,0-0.04-0.21
				C18,126.1,18.18,126.5,18.29,126.47z M9.56,118.49c-0.07-0.09-0.14-0.38-0.14-0.38l0.02,0C9.49,118.39,9.51,118.39,9.56,118.49z
				 M12.06,127.69c-0.18,0.06-0.08,0.65,0.13,1.44c-0.21-0.46-0.44-0.92-0.5-1.54C11.72,127.27,11.91,127.52,12.06,127.69z
				 M16.66,122.33c-0.22-0.4-0.45-0.9-0.64-1.96C16.24,121.21,16.45,121.82,16.66,122.33z M17.36,127.46
				c-0.06-0.65-0.13-1.18,0.09-1.23C17.27,126.27,17.3,126.81,17.36,127.46z M8.26,97.26l-0.01,0.2l-0.05,0l0-0.09
				c0.01-0.1,0.01-0.1,0.01-0.1L8.26,97.26z M7.68,101.17l0,0.09c-0.01,0.03-0.01,0.07-0.02,0.11c-0.06,0.52-0.11,0.95-0.17,1.41
				c-0.01,0.13-0.02,0.26-0.02,0.41c0-0.21,0-0.21,0-0.21c0.01-0.07,0.02-0.14,0.02-0.2c0.03-0.56,0.07-1.02,0.17-1.41
				C7.67,101.31,7.67,101.25,7.68,101.17z M6.07,116.47c0.08,0.01,0.17-0.02,0.24-0.12c0.03,0.32,0.05,0.52,0.08,0.83
				C6.31,116.92,6.19,116.69,6.07,116.47c-0.25-0.03-0.53-0.47-0.8-0.91C5.55,115.74,5.83,116.06,6.07,116.47z M18.55,142.65
				c0.21,0.52,0.34,0.83,0.51,1.24c0.15,0.55,0.38,1.06,0.57,1.34L19.62,145c0.18,0.53,0.35,0.95,0.54,1.35
				c0.72,1.51,2.05,3.74,1.17,3.43c-0.25-0.1-0.35-0.02-0.33,0.2c-0.27-0.53-0.54-1.06-0.78-1.54l-0.02,0.01
				c0-0.72-1.01-2.01-1.48-3.13c-0.15-0.85-0.42-1.77-0.88-2.83C18.16,142.85,18.39,142.86,18.55,142.65z M43.07,34.76
				c0.01-0.01,0.02-0.03,0.03-0.04c0,0,0,0,0.01,0C43.1,34.73,43.09,34.75,43.07,34.76z M108.24,14.67l-0.02,0.13
				c-0.02,0.1-0.52,0.03-0.53,0.1C107.71,14.79,108.22,14.78,108.24,14.67z M101.87,13.8c-0.21-0.02,0-0.01-0.1-0.02
				c-0.1,0-0.51,0-0.51,0l0.21-0.03c0.41-0.08,1.13-0.1,1.75-0.08C102.9,13.75,102.08,13.69,101.87,13.8z M103.22,14.75l0,0.01
				c0,0-0.11,0.01-0.31-0.01c-0.09,0.01-0.09,0.01-0.09,0.01l-0.21,0.05c-0.09,0-0.15,0.01-0.23,0.01c0.12-0.03,0.34-0.02,0.44-0.06
				l0-0.02l0.09,0.01C103.22,14.75,103.11,14.75,103.22,14.75z M171.84,138.09c0.04-0.2,0.22-0.44,0.29-0.52l0.05,0.02
				C172.08,137.77,171.81,138.4,171.84,138.09z M172.07,138.76l-0.08,0.15l0.02-0.18c-0.03,0.03-0.06,0.07-0.09,0.1
				c0-0.02,0.01-0.04,0.01-0.06c0.03,0.01,0.07-0.04,0.12-0.11c-0.01,0.02-0.02,0.05-0.04,0.07L172.07,138.76z M181.94,110.6
				c-0.04,0.3-0.05,0.4-0.11,0.8c-0.01-0.4-0.06-0.41-0.09-0.52C181.82,110.59,181.88,110.69,181.94,110.6z M180.06,62.18
				c0.02,0.05,0.01,0.03,0.06,0.12l-0.05-0.1C180.06,62.2,180.07,62.19,180.06,62.18c-0.05-0.1-0.09-0.2-0.13-0.27
				c-0.06-0.22-0.07-0.32-0.07-0.32C179.88,61.69,179.94,61.91,180.06,62.18z M179.63,52.74c0.04,0.07,0.05,0.07,0.05,0.07
				C179.66,52.79,179.65,52.77,179.63,52.74c0-0.01,0-0.01-0.01-0.01l-0.06-0.1C179.56,52.63,179.6,52.68,179.63,52.74z
				 M178.3,51.55l-0.04,0.02c0,0,0,0-0.06-0.1C178.28,51.56,178.3,51.55,178.3,51.55z M149.42,26.04c-0.75-0.43-1.33-0.72-1.84-0.93
				C148.01,25.23,148.54,25.43,149.42,26.04z M143.64,23.31c0.11,0,0.25,0.03,0.44,0.09c0,0,0,0,0.18,0.12
				C144.06,23.43,143.8,23.33,143.64,23.31z M144.26,22.91c0.1-0.16-0.3-0.52-0.8-0.94C143.96,22.39,144.38,22.71,144.26,22.91z
				 M133.3,16.83c0.19,0.09,0.39,0.19,0.49,0.24c-0.31-0.11-0.81-0.28-1.22-0.42C132.98,16.75,133.19,16.8,133.3,16.83z
				 M123.55,10.94c0.43,0.1,0.86,0.19,1.52,0.34c0,0,0.11,0.03,0.2,0.06c-0.53-0.16-1.29-0.31-1.74-0.33L123.55,10.94z M105.29,0.83
				c-0.09,0.02-0.15,0.05-0.32,0.09l0-0.03L105.29,0.83z M88.94,1.38c0,0,0,0,0.23,0.02c-0.23,0.01-0.69,0.03-0.93,0.04L88.94,1.38z
				 M23.15,48.92c0,0.09-0.01,0.24-0.01,0.36c0,0,0,0.01-0.01,0.01C23.11,49.21,23.11,49.09,23.15,48.92z M23.02,49.49
				c-0.01,0.01-0.01,0.02-0.02,0.03c-0.12,0.05-0.25,0.12-0.37,0.18C22.78,49.61,22.9,49.56,23.02,49.49z M4.91,108.63
				c-0.04,0.13-0.08,0.27-0.18,0.16c0,0,0,0-0.02-0.21C4.82,108.8,4.87,108.73,4.91,108.63z M7.18,126.54
				c0,0.01,0.01,0.02,0.01,0.03l-0.01,0C7.18,126.56,7.18,126.55,7.18,126.54z M17.23,146.2c-0.26-0.64-0.51-1.27-0.77-1.91
				c0.11,0.15,0.21,0.3,0.32,0.45c0.08,0.48,0.41,1.19,0.71,1.84C17.41,146.46,17.32,146.33,17.23,146.2z M23.79,158.77
				c-1.67-2.36-3.1-5.02-3.94-7.57c-0.1-0.31-0.23-0.63-0.36-0.96c0.3,0.48,0.56,0.94,0.73,1.37c0.22,0.72,0.96,1.74,1.5,2.62
				c0.13,0.17,0.31,0.29,0.46,0.44c2.05,2.76,3.86,5.67,6.5,8.16c-0.06,0.07-0.11,0.14-0.18,0.22
				C27.74,163.61,25.71,161.11,23.79,158.77z M29.51,140.2c0.52-0.02,0.65-0.72,0.42-1.98c0,0,0,0,0,0.01
				c0.16,0.78,0.31,1.55,0.44,2.23C30.72,141.82,29.97,140.76,29.51,140.2z M30.64,157.47c0.11,0.06-0.13-0.43,0.17-0.11
				c0.3,0.32,0.06,0.22,0.2,0.52C30.94,157.79,30.79,157.63,30.64,157.47z M37.1,157.53l0.1-0.08c0.09-0.06,0.39,0.35,0.44,0.31
				C37.56,157.82,37.19,157.46,37.1,157.53z M39.94,161.79c0.28,0.16,0.82,0.78,1.05,0.86c0.13,0.16-0.01,0.01,0.06,0.09
				c0.07,0.07,0.36,0.37,0.36,0.37l-0.17-0.13C40.89,162.74,40.37,162.24,39.94,161.79z M41.34,180.57c0,0,0,0-0.15-0.17
				c0.17,0.15,0.51,0.46,0.69,0.63L41.34,180.57z M45.18,178.93c0.01-0.03-0.03-0.08-0.02-0.11c-0.65-0.72-1.03-1.34-1.66-2.04
				l-0.2-0.12c0,0,0.11,0.05,0.02-0.03c0.09,0.07,0.09,0.07,0.17,0.15c1.54,1.22,1.74,1.71,1.66,2.04c0.13,0.14,0.2,0.26,0.35,0.41
				C45.35,179.08,45.35,179.08,45.18,178.93z M52.07,167.38c0.38,0.15,0.48,0.18,0.77,0.29c-0.15,0.02,0.04,0.24,0.07,0.36
				C52.61,167.79,52.34,167.66,52.07,167.38z M57.07,178.64l0.03-0.04l0.07,0.09C57.08,178.63,57.07,178.64,57.07,178.64z
				 M67.34,179.43c0.45,0.2,0.58,0.16,0.87,0.24C67.91,179.59,67.85,179.71,67.34,179.43z M72.36,182.09
				c0.09,0.04,0.1,0.03,0.1,0.03l0,0.01L72.36,182.09c-0.07-0.02-0.11-0.01-0.17-0.02c-0.41,0.2-1.2,0.01-2.11-0.32
				c-0.38-0.1-0.8-0.25-1.29-0.52c-0.06-0.03-0.08-0.02-0.14-0.05c-0.36-0.17-0.36-0.17-0.63-0.29c0.25,0.11,0.51,0.23,0.77,0.34
				c0.44,0.19,0.87,0.37,1.29,0.52c0.73,0.18,1.34,0.16,2.11,0.32c0.02-0.01,0.07,0,0.09-0.01c0.05,0-0.02-0.04,0.01-0.04
				c-0.29-0.33-0.51-0.57-0.81-0.9c-0.05-0.03-0.08-0.05-0.13-0.08c0.08,0.04,0.08,0.04,0.08,0.04c-0.04-0.06-0.16-0.15-0.22-0.22
				c-0.98-0.64-1.9-1.3-2.59-1.93l-0.02,0.04c-0.98-0.61-2.14-1.33-2.14-1.33s1.08,0.65,1.9,1.15c0.17,0.1,0.17,0.1,0.26,0.14
				c1.36,0.73,2.15,1.4,2.59,1.93c0.15,0.1,0.25,0.2,0.4,0.3c0,0,0,0-0.18-0.08c0.02,0.02,0.03,0.03,0.04,0.05
				c0.66,0.42,1.3,0.82,0.81,0.9C72.31,182.04,72.33,182.06,72.36,182.09z M74.84,182.51l-1.07-0.46c0.37,0.13,0.8,0.37,1.27,0.5
				C75.04,182.54,74.94,182.52,74.84,182.51z M80.36,189.69l0.01-0.03l0-0.01L80.36,189.69z M85.63,187.19
				c0.12-0.05-0.26-0.17-0.24-0.23c0.08,0.09,0.25,0.19,0.53,0.33C85.72,187.22,85.72,187.22,85.63,187.19z M92.91,188.89l0.01-0.03
				l0.19,0.08L92.91,188.89z M97.68,189.58c-0.47-0.24-1.02-0.5-1.59-0.71c0.39,0.02,1.17,0.07,1.87,0.1
				C98.33,189.18,98.6,189.4,97.68,189.58z M105.27,183.56c0.09,0.07,0.36,0.12,0.73,0.2c0,0,0.08,0.07,0.27,0.1l0,0.02
				c-0.19-0.05-0.27-0.12-0.27-0.12c-0.45-0.09-0.64-0.13-0.91-0.18C105.27,183.58,105.27,183.56,105.27,183.56z M106.24,185.02
				c0.09,0,0.09,0,0.09,0c-0.1,0.07-0.37,0.13-0.66,0.2C105.97,185.15,106.05,185.09,106.24,185.02z M121.85,193.13
				c-0.01,0.01-0.04,0.03-0.05,0.05c-0.05,0.09-0.14,0.19-0.31,0.29c0.08-0.07,0.21-0.2,0.31-0.29c0.03-0.06,0.04-0.12,0.03-0.16
				c0.02,0.13,0.34,0.19,0.57,0.28C122.18,193.24,122.06,193.15,121.85,193.13z M130.03,183.58c-0.38,0.12-0.87,0.33-0.92,0.14
				c-0.18,0.05-0.02-0.07-0.29-0.01c0.02-0.02,0.03-0.03,0.04-0.04c0.07-0.03,0.15-0.05,0.22-0.08l0.04,0.14l0.57-0.07
				C129.79,183.63,129.91,183.6,130.03,183.58c0.06-0.02,0.14-0.05,0.2-0.06l0.01,0.02C130.2,183.55,130.1,183.57,130.03,183.58z
				 M148.93,174.91c-1.27,0.61-2.41,1.07-2.84,0.83c-0.63-0.19,0.67-0.92,1.74-1.62c0.46-0.31,1.06-0.75,0.7-0.81
				c-0.75,0.16-1.78,0.94-2.34,0.88c0.95-0.74,2.18-1.15,3.18-1.96c-0.24,0.06-0.39,0.08-0.46,0.04c-0.04,0.01-0.08,0.03-0.12,0.04
				c0.08-0.05,0.08-0.05,0.08-0.05c0.01,0.01,0.03,0,0.04,0.01c0.22-0.07,0.41-0.12,0.46-0.04c0.14-0.13,0.36-0.28,0.62-0.38
				c1.31-0.5,2.67-1.76,4.04-2.35c1.9-0.95,3.38-2.36,4.96-3.89l0.08-0.05l0.14-0.13c-0.07,0.06-0.07,0.06-0.07,0.06
				c1.15-1.6-0.38-0.3-1.32,0.41l-0.42,0.34l-0.25,0.14c-0.77,0.2-2.09,1.44-2.87,1.6c3.24-2.59,6.58-5.2,9.42-8.24
				c0.19-0.2,0.41-0.4,0.63-0.61c-0.03,0.05-0.05,0.1-0.06,0.12c-0.2,0.38,0.14,0.12,0.39-0.21c0.2-0.23,0.36-0.5,0.36-0.5
				c-0.02-0.01-0.04-0.02-0.05-0.04c0.53-0.54,0.97-1.06,0.98-1.46c0.07-0.51,0.34-1.07,0.73-1.67c0.75-0.36,1.87-1.46,2.36-1.35
				c-0.44,0.71-0.62,1.1-0.59,1.38c-1.6,2.2-2.03,3.31-2.92,4.91c-0.86,1.49-1.13,2.53-2.57,4.37c-0.78,0.88-1.49,1.74-2.17,2.59
				c-0.19,0.13-0.38,0.28-0.57,0.41C156.69,170.36,152.83,172.69,148.93,174.91z M153.11,174.14c0.08-0.05,0.41-0.24,0.41-0.24
				c0.13-0.03,0.25-0.11,0.38-0.18c0.19-0.11,0.36-0.2,0.49-0.23c-0.16,0.04-0.33,0.14-0.49,0.23
				C153.65,173.87,153.37,174.04,153.11,174.14z"/>
			<path class="st0" d="M28.62,37.57c-0.35,1-2.79,3.68-3.21,4.99C29.28,38.06,29.44,38.22,28.62,37.57z"/>
			<path class="st0" d="M4.12,89.27c0.32-1.14,0.55-2.93,0.96-3.92c1.07-2.16,1.18-5.38,2.13-7.97c0.2-0.59,0.48-1.4,0.75-2.2
				c0.67-1.32,1.03-3.44,1.8-4.83c0.32-0.77,0.57-1.36,0.81-1.94c0.95-2.66,1.89-5.26,3.38-7.55l0.16-0.39l0.16-0.27
				c2.48-4.07,4.39-7.66,6.22-11.01l1.57-2.34c0.49-0.82,0.87-1.57,0.73-1.67c-0.01-0.03-0.02-0.03-0.03-0.04
				c0.55-0.95,1.1-1.89,1.68-2.82C17.87,50.43,12.78,59.64,9.07,69.3C9,68.97,8.66,69.6,8.41,70.38c-0.6,1.9-1.36,3.82-1.83,5.68
				c-0.74,1.6-1.2,3.61-1.57,5.57c-0.29,1.25-0.55,2.39-0.83,3.65C3.8,86.41,3.6,88,3.3,89.16C3.24,89.69,3.18,90,3.1,90.31
				c-0.42,1.03-0.51,2.55-0.65,4.04c-0.06,0.43-0.13,0.96-0.17,1.29c-0.11,0.52-0.32,1.16-0.37,1.59c-0.01,1.62-0.03,3.13-0.04,4.75
				c0,0.11,0.07,0.32,0.07,0.32c0.07,0.11,0.12,0.11,0.19-0.21c0.12-0.33,0.24-0.65,0.31-1.3l-0.02,0c0.22-0.74,0.18-1.92,0.33-2.87
				c0.01-0.33,0-0.65,0.06-0.96c0.32-0.74,0.41-1.58,0.51-2.75c-0.1,0.38-0.19,0.68-0.29,0.95c-0.04,0.13-0.08,0.26-0.13,0.41
				c0,0,0,0,0.01-0.11c0.04-0.09,0.08-0.2,0.12-0.3c0.1-0.34,0.2-0.65,0.29-0.95c0.46-1.24,0.34-3.61,0.83-5.05L4.12,89.27z"/>
			<path class="st0" d="M176.52,36.3c-2.08-3.13-4.3-4.74-6.1-6.18C172.42,31.72,174.56,34.95,176.52,36.3z"/>
			<path class="st0" d="M187.19,51.52c0.63,1.18,1.36,2.57,2.04,3.85c0.37,0.62,0.75,1.38,1,1.66c0.59,0.65,0.36-0.17-0.08-1.04
				c-1.34-2.58-2.48-5.45-4.21-7.39c-0.2-0.3-0.4-0.6-0.66-1.01c-0.56-0.8-1.15-1.59-1.34-1.46c-0.29-0.1,0.24,0.71,0.63,1.33
				C185.47,48.89,186.34,50.48,187.19,51.52z"/>
			<path class="st0" d="M36.5,29.82c-0.25,0.05-0.61,0.28-0.9,0.6c-0.29,0.32-0.65,0.73-1,1.13c0.44-0.3,0.71-0.48,0.98-0.66
				C36.15,30.43,36.62,29.97,36.5,29.82z"/>
			<path class="st0" d="M32.33,34.01c0.09-0.21,0.14-0.32,0.23-0.54c-0.26,0.2-0.68,0.53-0.94,0.73c0.06,0.07-0.26,0.51-0.05,0.41
				C31.68,34.57,32.09,34.22,32.33,34.01z"/>
			<path class="st0" d="M189.97,148.62c-0.22,0.29-0.28-0.28-0.67,0.88c-0.08,0.24-0.08,0.5-0.03,0.53c0.18-0.18,0.45-0.58,0.72-1
				C190.2,148.6,190.26,148.23,189.97,148.62z"/>
			<path class="st0" d="M197.79,84.01c0.3,0.2,0.01-1.09-0.1-1.81l-0.86-4.25c-0.35-0.78-0.56-0.72-0.54,0.13l0.84,4.23
				C197.36,83.23,197.61,84.04,197.79,84.01z"/>
			<polygon class="st0" points="152.51,22.09 152.93,22.48 152.73,22.17 			"/>
		</g>
	</g>
</g>
<g id="Layer_2">
	<g>
		<g id="XMLID_37_">
			<g>
				<path d="M163.94,95.82c0.94,18.77,2.76,44.32-21.25,48.34c-13.42,2.24-26.88,0.52-40.37,0.91c-12.65,0.35-25.34,0.7-38,0.7
					c-7.97,0.03-16.57-0.56-22.37-6.64c-6.12-6.47-6.5-15.42-5.7-23.91c-0.07,0-0.17-0.07-0.28-0.07c-0.14-3.92,0.03-7.9,0.07-11.78
					c0.07-9.47-1.15-19.61,0.21-28.98c1.75-12.23,11.01-18.39,21.92-18.98c0.17-0.1,0.42-0.14,0.63-0.24
					c0.07,0.14,0.14,0.28,0.24,0.42c6.22-2.1,13.25-0.91,19.72-0.63c11.75,0.45,23.53,0.17,35.27,0.28
					c10.14,0.07,21.01-2.24,31.04-0.14c3.22,0.66,7.45,1.96,9.93,4.47c0.07-0.17,0.14-0.31,0.21-0.52c2.03,1.71,3.78,3.81,5.07,6.47
					C164.81,74.85,163.41,85.79,163.94,95.82z M161.21,118.72c1.43-11.64-0.31-23.81-0.52-35.52c-0.14-6.43-0.21-12.83-3.71-18.53
					c-0.31-0.56-0.7-1.05-1.08-1.54c-0.17,0-0.35-0.07-0.49-0.17c-5.87-5.7-16.15-5.56-23.74-5.49c-8.74,0.07-17.34,0.73-26.11,0.56
					c-8.95-0.17-17.83,0.31-26.81-0.07c-6.22-0.28-12.44-0.77-18.67-0.28c0.03,0.07,0.07,0.14,0.1,0.24
					c-0.38,0.03-0.77,0.1-1.19,0.14c-0.07,0.03-0.14,0.07-0.21,0.1c-0.42,0.21-0.84,0.21-1.19,0.07c-4.96,0.66-9.75,1.78-13.49,5.73
					c-5.94,6.26-5.21,15.42-4.96,23.39c0.24,7.48,0.35,15,0.38,22.48c0,1.89,0.1,3.74,0.28,5.52c-0.14,0.07-0.24,0.14-0.38,0.17
					c0.07,5.94-0.14,12.2,2.27,17.44c3.5,7.52,10.45,9.44,18.04,9.93c10.31,0.66,20.94-0.42,31.25-0.56
					c12.41-0.21,24.82,0.17,37.19-0.14c6.29-0.14,13.53-0.52,19.54-2.45C157.4,136.65,160.13,127.84,161.21,118.72z"/>
				<path d="M160.68,83.2c0.21,11.71,1.96,23.88,0.52,35.52c-1.08,9.12-3.81,17.93-13.49,21.04c-6.01,1.92-13.25,2.31-19.54,2.45
					c-12.37,0.31-24.78-0.07-37.19,0.14c-10.31,0.14-20.94,1.22-31.25,0.56c-7.59-0.49-14.54-2.41-18.04-9.93
					c-2.41-5.24-2.2-11.5-2.27-17.44c0.14-0.03,0.24-0.1,0.38-0.17c-0.17-1.78-0.28-3.64-0.28-5.52c-0.03-7.48-0.14-15-0.38-22.48
					c-0.24-7.97-0.98-17.13,4.96-23.39c3.74-3.95,8.53-5.07,13.49-5.73c0.35,0.14,0.77,0.14,1.19-0.07c0.07-0.03,0.14-0.07,0.21-0.1
					c0.42-0.03,0.8-0.1,1.19-0.14c-0.03-0.1-0.07-0.17-0.1-0.24c6.22-0.49,12.44,0,18.67,0.28c8.98,0.38,17.86-0.1,26.81,0.07
					c8.77,0.17,17.37-0.49,26.11-0.56c7.59-0.07,17.86-0.21,23.74,5.49c0.14,0.1,0.31,0.17,0.49,0.17c0.38,0.49,0.77,0.98,1.08,1.54
					C160.48,70.37,160.54,76.77,160.68,83.2z M121.22,101.1c0.98-0.87-0.14-2.31-1.22-1.99c-2.06-1.92-4.37-3.04-6.82-4.65
					c-3.25-2.2-5.91-5.03-9.3-7.03c-6.78-4.02-14.02-7.31-20.8-11.29c-0.03,0-0.03,0-0.03,0c-0.21-0.17-0.52-0.17-0.66,0.07
					c-0.21,0.17-0.35,0.45-0.17,0.73c-1.36,7.76-0.45,16.25-0.52,24.12c-0.07,7.66-0.94,15.73,0.17,23.28
					c0.14,1.15,1.89,1.01,2.24,0.07c7.13-2.9,13.04-8.14,19.33-12.55C109.02,107.95,116.19,105.61,121.22,101.1z"/>
				<path d="M120,99.11c1.08-0.31,2.2,1.12,1.22,1.99c-5.03,4.51-12.2,6.85-17.79,10.77c-6.29,4.4-12.2,9.65-19.33,12.55
					c-0.35,0.94-2.1,1.08-2.24-0.07c-1.12-7.55-0.24-15.63-0.17-23.28c0.07-7.87-0.84-16.36,0.52-24.12
					c-0.17-0.28-0.03-0.56,0.17-0.73c0.14-0.24,0.45-0.24,0.66-0.07c0,0,0,0,0.03,0c6.78,3.99,14.02,7.27,20.8,11.29
					c3.39,1.99,6.05,4.82,9.3,7.03C115.63,96.06,117.93,97.18,120,99.11z M100.87,110.26c5.63-3.95,11.75-6.85,17.62-10.35
					c-6.61-3.81-12.79-8.32-19.61-11.75c-4.75-2.41-11.05-5-14.96-9.09c1.43,6.57,0.73,13.77,0.63,20.41
					c-0.14,7.62-0.45,15.28-0.38,22.9c1.33-2.2,5.73-4.23,7.1-5.21C94.48,114.84,97.62,112.49,100.87,110.26z"/>
			</g>
		</g>
	</g>
</g>
</svg>
